<svg width="400mm" height="300mm" viewBox="0 0 400 300" xmlns="http://www.w3.org/2000/svg" version="1.1" preserveAspectRatio="xMidYMid meet"><g id="svgGroup" stroke-linecap="round" fill-rule="evenodd" font-size="9pt" stroke="#000" stroke-width="0.25mm" fill="none" style="stroke:#000;stroke-width:0.25mm;fill:none"><path d="M 0 0 L 0 25 L 8 25 L 8 47.375 L 11.75 47.375 L 11.75 45.875 L 16 45.875 L 16 47.375 L 20.25 47.375 L 20.25 52.625 L 16 52.625 L 16 54.125 L 11.75 54.125 L 11.75 52.625 L 8 52.625 L 8 75 L 0 75 L 0 125 L 8 125 L 8 147.375 L 11.75 147.375 L 11.75 145.875 L 16 145.875 L 16 147.375 L 20.25 147.375 L 20.25 152.625 L 16 152.625 L 16 154.125 L 11.75 154.125 L 11.75 152.625 L 8 152.625 L 8 175 L 0 175 L 0 225 L 8 225 L 8 247.375 L 11.75 247.375 L 11.75 245.875 L 16 245.875 L 16 247.375 L 20.25 247.375 L 20.25 252.625 L 16 252.625 L 16 254.125 L 11.75 254.125 L 11.75 252.625 L 8 252.625 L 8 275 L 0 275 L 0 300 L 33.333 300 L 33.333 292 L 64.042 292 L 64.042 288.25 L 62.542 288.25 L 62.542 284 L 64.042 284 L 64.042 279.75 L 69.292 279.75 L 69.292 284 L 70.792 284 L 70.792 288.25 L 69.292 288.25 L 69.292 292 L 100 292 L 100 300 L 166.667 300 L 166.667 292 L 197.375 292 L 197.375 288.25 L 195.875 288.25 L 195.875 284 L 197.375 284 L 197.375 279.75 L 202.625 279.75 L 202.625 284 L 204.125 284 L 204.125 288.25 L 202.625 288.25 L 202.625 292 L 233.333 292 L 233.333 300 L 300 300 L 300 292 L 330.708 292 L 330.708 288.25 L 329.208 288.25 L 329.208 284 L 330.708 284 L 330.708 279.75 L 335.958 279.75 L 335.958 284 L 337.458 284 L 337.458 288.25 L 335.958 288.25 L 335.958 292 L 366.667 292 L 366.667 300 L 400 300 L 400 275 L 392 275 L 392 252.625 L 388.25 252.625 L 388.25 254.125 L 384 254.125 L 384 252.625 L 379.75 252.625 L 379.75 247.375 L 384 247.375 L 384 245.875 L 388.25 245.875 L 388.25 247.375 L 392 247.375 L 392 225 L 400 225 L 400 175 L 392 175 L 392 152.625 L 388.25 152.625 L 388.25 154.125 L 384 154.125 L 384 152.625 L 379.75 152.625 L 379.75 147.375 L 384 147.375 L 384 145.875 L 388.25 145.875 L 388.25 147.375 L 392 147.375 L 392 125 L 400 125 L 400 75 L 392 75 L 392 52.625 L 388.25 52.625 L 388.25 54.125 L 384 54.125 L 384 52.625 L 379.75 52.625 L 379.75 47.375 L 384 47.375 L 384 45.875 L 388.25 45.875 L 388.25 47.375 L 392 47.375 L 392 25 L 400 25 L 400 0 L 366.667 0 L 366.667 8 L 335.958 8 L 335.958 11.75 L 337.458 11.75 L 337.458 16 L 335.958 16 L 335.958 20.25 L 330.708 20.25 L 330.708 16 L 329.208 16 L 329.208 11.75 L 330.708 11.75 L 330.708 8 L 300 8 L 300 0 L 233.333 0 L 233.333 8 L 202.625 8 L 202.625 11.75 L 204.125 11.75 L 204.125 16 L 202.625 16 L 202.625 20.25 L 197.375 20.25 L 197.375 16 L 195.875 16 L 195.875 11.75 L 197.375 11.75 L 197.375 8 L 166.667 8 L 166.667 0 L 100 0 L 100 8 L 69.292 8 L 69.292 11.75 L 70.792 11.75 L 70.792 16 L 69.292 16 L 69.292 20.25 L 64.042 20.25 L 64.042 16 L 62.542 16 L 62.542 11.75 L 64.042 11.75 L 64.042 8 L 33.333 8 L 33.333 0 L 0 0 Z" id="back_outsideCutPath" stroke="#FF0000" stroke-width="0.1" style="stroke:#FF0000;stroke-width:0.1" vector-effect="non-scaling-stroke"/><path d="M 241.074 156.064 L 241.309 156.064 A 28.79 28.79 0 0 1 242.021 155.101 Q 242.84 154.036 244.01 152.675 A 104.497 104.497 0 0 1 245.146 151.377 L 255.518 140.39 L 261.289 140.39 L 248.281 154.072 L 262.197 172.5 L 256.309 172.5 L 244.971 157.324 L 241.309 160.488 L 241.309 172.5 L 236.504 172.5 L 236.504 126.914 L 241.309 126.914 L 241.309 151.084 A 32.408 32.408 0 0 1 241.294 151.999 Q 241.25 153.537 241.074 156.064 Z M 142.666 168.369 L 142.314 168.369 L 141.289 172.5 L 137.803 172.5 L 137.803 126.914 L 142.666 126.914 L 142.666 137.988 Q 142.666 141.709 142.432 144.668 L 142.666 144.668 A 11.057 11.057 0 0 1 150.737 139.98 A 16.61 16.61 0 0 1 152.744 139.863 A 14.864 14.864 0 0 1 156.927 140.421 A 11.127 11.127 0 0 1 162.573 144.184 Q 165.377 147.645 165.935 153.406 A 31.216 31.216 0 0 1 166.074 156.416 Q 166.074 161.997 164.316 165.821 A 13.669 13.669 0 0 1 162.544 168.706 Q 159.014 173.086 152.744 173.086 A 14.751 14.751 0 0 1 149.037 172.634 A 12.835 12.835 0 0 1 147.017 171.928 A 10.771 10.771 0 0 1 142.666 168.369 Z M 197.92 172.5 L 194.316 172.5 L 193.35 167.929 L 193.115 167.929 A 20.161 20.161 0 0 1 191.484 169.755 Q 189.901 171.31 188.325 172.016 A 11.215 11.215 0 0 1 186.009 172.747 Q 184.885 172.98 183.583 173.053 A 21.886 21.886 0 0 1 182.363 173.086 A 14.925 14.925 0 0 1 179.326 172.795 Q 177.47 172.409 176.045 171.511 A 8.375 8.375 0 0 1 174.878 170.625 A 7.994 7.994 0 0 1 172.467 166.409 A 12.237 12.237 0 0 1 172.168 163.623 A 8.415 8.415 0 0 1 176.954 155.681 Q 180.518 153.784 186.736 153.467 A 47.505 47.505 0 0 1 187.725 153.427 L 193.174 153.252 L 193.174 151.259 A 13.968 13.968 0 0 0 193.038 149.24 Q 192.704 146.959 191.548 145.678 A 4.937 4.937 0 0 0 189.526 144.359 Q 188.716 144.065 187.713 143.95 A 12.016 12.016 0 0 0 186.348 143.877 A 15.834 15.834 0 0 0 182.704 144.331 Q 181.032 144.727 179.212 145.467 A 32.57 32.57 0 0 0 177.266 146.338 L 175.771 142.617 A 22.423 22.423 0 0 1 180.099 140.838 A 25.523 25.523 0 0 1 180.972 140.595 A 22.522 22.522 0 0 1 186.641 139.863 A 20.54 20.54 0 0 1 189.769 140.085 Q 191.377 140.333 192.66 140.86 A 8.277 8.277 0 0 1 195.151 142.412 Q 197.322 144.411 197.791 148.301 A 19.136 19.136 0 0 1 197.92 150.586 L 197.92 172.5 Z M 229.355 141.474 L 227.861 145.605 A 21.635 21.635 0 0 0 225.514 144.825 A 25.84 25.84 0 0 0 224.346 144.536 A 20.089 20.089 0 0 0 222.817 144.253 Q 221.823 144.111 220.977 144.111 Q 211.191 144.111 211.191 156.591 Q 211.191 160.475 212.22 163.173 A 10.087 10.087 0 0 0 213.579 165.673 A 7.724 7.724 0 0 0 218.583 168.664 A 11.766 11.766 0 0 0 220.654 168.838 A 20.358 20.358 0 0 0 226.27 168.021 A 25.136 25.136 0 0 0 228.887 167.109 L 228.887 171.416 Q 225.664 173.086 220.771 173.086 A 18.176 18.176 0 0 1 216.35 172.578 A 12.325 12.325 0 0 1 209.976 168.794 Q 206.673 165.086 206.223 158.723 A 29.406 29.406 0 0 1 206.152 156.65 Q 206.152 150.817 208.187 146.903 A 13.407 13.407 0 0 1 210.034 144.199 A 12.593 12.593 0 0 1 216.93 140.234 A 19.09 19.09 0 0 1 221.094 139.804 A 21.947 21.947 0 0 1 225.723 140.302 Q 228.011 140.795 229.326 141.459 A 7.245 7.245 0 0 1 229.355 141.474 Z M 152.041 143.935 A 13.666 13.666 0 0 0 149.394 144.174 Q 146.425 144.761 144.863 146.792 A 8.325 8.325 0 0 0 143.658 149.087 Q 142.845 151.366 142.698 154.83 A 37.469 37.469 0 0 0 142.666 156.416 A 32.156 32.156 0 0 0 142.825 159.739 Q 143.265 163.958 144.922 166.098 A 7.055 7.055 0 0 0 148.501 168.514 Q 149.697 168.888 151.156 168.982 A 15.637 15.637 0 0 0 152.158 169.013 A 9.695 9.695 0 0 0 154.912 168.645 A 6.994 6.994 0 0 0 158.838 165.747 Q 160.408 163.413 160.856 159.622 A 27.866 27.866 0 0 0 161.035 156.357 A 28.733 28.733 0 0 0 160.861 153.083 Q 160.417 149.222 158.838 147.011 Q 156.641 143.935 152.041 143.935 Z M 193.057 159.609 L 193.057 156.709 L 188.193 156.914 A 35.709 35.709 0 0 0 185.34 157.121 Q 182.527 157.448 180.763 158.227 A 7.469 7.469 0 0 0 179.829 158.715 Q 177.266 160.312 177.266 163.681 A 6.95 6.95 0 0 0 177.438 165.276 Q 177.79 166.77 178.862 167.695 A 5.294 5.294 0 0 0 180.846 168.748 Q 181.631 168.981 182.571 169.046 A 10.938 10.938 0 0 0 183.33 169.072 Q 187.254 169.072 189.723 167.212 A 8.12 8.12 0 0 0 190.464 166.582 A 8.145 8.145 0 0 0 192.736 162.515 Q 193.057 161.185 193.057 159.609 Z" id="back_labelLayer" stroke="#777777" fill="#777777" style="stroke:#777777;fill:#777777" vector-effect="non-scaling-stroke"/></g></svg>