<svg width="400mm" height="300mm" viewBox="0 0 400 300" xmlns="http://www.w3.org/2000/svg" version="1.1" preserveAspectRatio="xMidYMid meet"><g id="svgGroup" stroke-linecap="round" fill-rule="evenodd" font-size="9pt" stroke="#000" stroke-width="0.25mm" fill="none" style="stroke:#000;stroke-width:0.25mm;fill:none"><path d="M 0 0 L 0 25 L 8 25 L 8 47.375 L 11.75 47.375 L 11.75 45.875 L 16 45.875 L 16 47.375 L 20.25 47.375 L 20.25 52.625 L 16 52.625 L 16 54.125 L 11.75 54.125 L 11.75 52.625 L 8 52.625 L 8 75 L 0 75 L 0 125 L 8 125 L 8 147.375 L 11.75 147.375 L 11.75 145.875 L 16 145.875 L 16 147.375 L 20.25 147.375 L 20.25 152.625 L 16 152.625 L 16 154.125 L 11.75 154.125 L 11.75 152.625 L 8 152.625 L 8 175 L 0 175 L 0 225 L 8 225 L 8 247.375 L 11.75 247.375 L 11.75 245.875 L 16 245.875 L 16 247.375 L 20.25 247.375 L 20.25 252.625 L 16 252.625 L 16 254.125 L 11.75 254.125 L 11.75 252.625 L 8 252.625 L 8 275 L 0 275 L 0 300 L 33.333 300 L 33.333 292 L 64.042 292 L 64.042 288.25 L 62.542 288.25 L 62.542 284 L 64.042 284 L 64.042 279.75 L 69.292 279.75 L 69.292 284 L 70.792 284 L 70.792 288.25 L 69.292 288.25 L 69.292 292 L 100 292 L 100 300 L 166.667 300 L 166.667 292 L 197.375 292 L 197.375 288.25 L 195.875 288.25 L 195.875 284 L 197.375 284 L 197.375 279.75 L 202.625 279.75 L 202.625 284 L 204.125 284 L 204.125 288.25 L 202.625 288.25 L 202.625 292 L 233.333 292 L 233.333 300 L 300 300 L 300 292 L 330.708 292 L 330.708 288.25 L 329.208 288.25 L 329.208 284 L 330.708 284 L 330.708 279.75 L 335.958 279.75 L 335.958 284 L 337.458 284 L 337.458 288.25 L 335.958 288.25 L 335.958 292 L 366.667 292 L 366.667 300 L 400 300 L 400 275 L 392 275 L 392 252.625 L 388.25 252.625 L 388.25 254.125 L 384 254.125 L 384 252.625 L 379.75 252.625 L 379.75 247.375 L 384 247.375 L 384 245.875 L 388.25 245.875 L 388.25 247.375 L 392 247.375 L 392 225 L 400 225 L 400 175 L 392 175 L 392 152.625 L 388.25 152.625 L 388.25 154.125 L 384 154.125 L 384 152.625 L 379.75 152.625 L 379.75 147.375 L 384 147.375 L 384 145.875 L 388.25 145.875 L 388.25 147.375 L 392 147.375 L 392 125 L 400 125 L 400 75 L 392 75 L 392 52.625 L 388.25 52.625 L 388.25 54.125 L 384 54.125 L 384 52.625 L 379.75 52.625 L 379.75 47.375 L 384 47.375 L 384 45.875 L 388.25 45.875 L 388.25 47.375 L 392 47.375 L 392 25 L 400 25 L 400 0 L 366.667 0 L 366.667 8 L 335.958 8 L 335.958 11.75 L 337.458 11.75 L 337.458 16 L 335.958 16 L 335.958 20.25 L 330.708 20.25 L 330.708 16 L 329.208 16 L 329.208 11.75 L 330.708 11.75 L 330.708 8 L 300 8 L 300 0 L 233.333 0 L 233.333 8 L 202.625 8 L 202.625 11.75 L 204.125 11.75 L 204.125 16 L 202.625 16 L 202.625 20.25 L 197.375 20.25 L 197.375 16 L 195.875 16 L 195.875 11.75 L 197.375 11.75 L 197.375 8 L 166.667 8 L 166.667 0 L 100 0 L 100 8 L 69.292 8 L 69.292 11.75 L 70.792 11.75 L 70.792 16 L 69.292 16 L 69.292 20.25 L 64.042 20.25 L 64.042 16 L 62.542 16 L 62.542 11.75 L 64.042 11.75 L 64.042 8 L 33.333 8 L 33.333 0 L 0 0 Z" id="front_outsideCutPath" stroke="#FF0000" stroke-width="0.1" style="stroke:#FF0000;stroke-width:0.1" vector-effect="non-scaling-stroke"/><path d="M 243.726 172.66 L 238.862 172.66 L 238.862 151.889 Q 238.862 149.387 238.136 147.694 A 5.785 5.785 0 0 0 237.075 146.03 Q 235.628 144.464 232.857 144.166 A 12.893 12.893 0 0 0 231.479 144.096 Q 228.16 144.096 226.01 145.278 A 6.857 6.857 0 0 0 224.097 146.821 A 7.95 7.95 0 0 0 222.715 149.237 Q 221.753 151.798 221.753 155.815 L 221.753 172.66 L 216.89 172.66 L 216.89 140.551 L 220.845 140.551 L 221.636 144.946 L 221.87 144.946 A 9.848 9.848 0 0 1 225.727 141.436 A 11.841 11.841 0 0 1 226.06 141.269 A 13.169 13.169 0 0 1 230.746 140.019 A 15.924 15.924 0 0 1 232.065 139.965 Q 237.866 139.965 240.796 142.763 Q 243.025 144.891 243.558 148.961 A 21.223 21.223 0 0 1 243.726 151.713 L 243.726 172.66 Z M 150.298 140.551 L 150.298 144.33 L 142.124 144.33 L 142.124 172.66 L 137.261 172.66 L 137.261 144.33 L 131.519 144.33 L 131.519 142.133 L 137.261 140.375 L 137.261 138.588 Q 137.261 128.371 144.968 126.974 A 14.782 14.782 0 0 1 147.603 126.752 A 15.661 15.661 0 0 1 149.819 126.922 Q 150.897 127.076 152.096 127.372 A 31.482 31.482 0 0 1 153.579 127.778 L 152.319 131.674 Q 150.322 131.029 148.738 130.842 A 10.459 10.459 0 0 0 147.515 130.766 A 6.559 6.559 0 0 0 145.934 130.945 A 4.212 4.212 0 0 0 143.442 132.597 A 5.627 5.627 0 0 0 142.699 134.097 Q 142.205 135.562 142.135 137.739 A 22.961 22.961 0 0 0 142.124 138.471 L 142.124 140.551 L 150.298 140.551 Z M 268.481 168.647 L 268.481 172.368 A 4.784 4.784 0 0 1 267.914 172.593 Q 267.309 172.793 266.443 172.948 A 18.187 18.187 0 0 1 266.152 172.997 Q 264.716 173.23 263.549 173.245 A 12.468 12.468 0 0 1 263.384 173.246 A 12.702 12.702 0 0 1 259.641 172.743 Q 254.067 171.023 254.067 163.432 L 254.067 144.33 L 249.468 144.33 L 249.468 141.987 L 254.067 139.965 L 256.118 133.11 L 258.931 133.11 L 258.931 140.551 L 268.247 140.551 L 268.247 144.33 L 258.931 144.33 L 258.931 163.227 A 9.793 9.793 0 0 0 259.072 164.947 Q 259.372 166.625 260.308 167.68 A 4.518 4.518 0 0 0 263.085 169.158 A 6.5 6.5 0 0 0 264.087 169.233 A 15.972 15.972 0 0 0 266.427 169.065 A 14.725 14.725 0 0 0 266.577 169.042 A 26.309 26.309 0 0 0 267.279 168.922 Q 267.95 168.797 268.416 168.666 A 7.307 7.307 0 0 0 268.481 168.647 Z M 174.644 140.317 L 173.97 144.828 A 21.434 21.434 0 0 0 172.428 144.544 Q 171.66 144.433 170.976 144.401 A 11.407 11.407 0 0 0 170.454 144.389 Q 166.558 144.389 163.789 147.553 A 11.106 11.106 0 0 0 161.11 153.789 A 14.762 14.762 0 0 0 161.021 155.434 L 161.021 172.66 L 156.157 172.66 L 156.157 140.551 L 160.171 140.551 L 160.728 146.498 L 160.962 146.498 A 16.423 16.423 0 0 1 162.798 143.875 A 12.545 12.545 0 0 1 165.269 141.664 A 9.695 9.695 0 0 1 170.806 139.965 A 22.327 22.327 0 0 1 172.804 140.05 A 16.295 16.295 0 0 1 174.644 140.317 Z M 204.409 168.837 A 13.567 13.567 0 0 0 206.025 166.618 Q 208.364 162.615 208.364 156.577 A 28.542 28.542 0 0 0 208.354 155.804 Q 208.282 153.131 207.703 150.861 A 15.143 15.143 0 0 0 204.395 144.448 A 12.731 12.731 0 0 0 198.484 140.636 A 16.342 16.342 0 0 0 193.687 139.965 A 18.889 18.889 0 0 0 190.294 140.256 A 12.864 12.864 0 0 0 182.788 144.345 Q 180.181 147.254 179.305 151.693 A 25.251 25.251 0 0 0 178.862 156.577 Q 178.862 161.645 180.679 165.424 A 15.985 15.985 0 0 0 181.033 166.117 A 13.166 13.166 0 0 0 185.835 171.225 A 13.542 13.542 0 0 0 188.943 172.607 A 15.617 15.617 0 0 0 193.481 173.246 A 18.885 18.885 0 0 0 196.779 172.971 A 12.966 12.966 0 0 0 204.409 168.837 Z M 183.901 156.577 A 24.628 24.628 0 0 0 184.136 160.095 Q 184.394 161.881 184.938 163.327 A 10.203 10.203 0 0 0 186.362 165.952 A 7.971 7.971 0 0 0 191.554 169.009 A 12.078 12.078 0 0 0 193.599 169.174 A 11.296 11.296 0 0 0 196.579 168.804 A 7.861 7.861 0 0 0 200.85 165.966 A 10.44 10.44 0 0 0 202.475 162.8 Q 202.953 161.337 203.163 159.55 A 25.617 25.617 0 0 0 203.325 156.577 A 24.266 24.266 0 0 0 203.095 153.119 Q 202.841 151.359 202.307 149.932 A 10.013 10.013 0 0 0 200.85 147.275 A 8 8 0 0 0 195.876 144.307 A 12.266 12.266 0 0 0 193.54 144.096 A 11.574 11.574 0 0 0 190.659 144.434 A 7.746 7.746 0 0 0 186.333 147.231 Q 184.583 149.487 184.092 153.338 A 25.699 25.699 0 0 0 183.901 156.577 Z" id="front_labelLayer" stroke="#777777" fill="#777777" style="stroke:#777777;fill:#777777" vector-effect="non-scaling-stroke"/></g></svg>