<svg width="400mm" height="300mm" viewBox="0 0 400 300" xmlns="http://www.w3.org/2000/svg" version="1.1" preserveAspectRatio="xMidYMid meet"><g id="svgGroup" stroke-linecap="round" fill-rule="evenodd" font-size="9pt" stroke="#000" stroke-width="0.25mm" fill="none" style="stroke:#000;stroke-width:0.25mm;fill:none"><path d="M 8 0 L 8 25 L 0 25 L 0 47.375 L 5.25 47.375 L 5.25 50 L 5.25 52.625 L 0 52.625 L 0 75 L 8 75 L 8 125 L 0 125 L 0 147.375 L 5.25 147.375 L 5.25 150 L 5.25 152.625 L 0 152.625 L 0 175 L 8 175 L 8 225 L 0 225 L 0 247.375 L 5.25 247.375 L 5.25 250 L 5.25 252.625 L 0 252.625 L 0 275 L 8 275 L 8 300 L 33.333 300 L 33.333 292 L 64.042 292 L 64.042 288.25 L 62.542 288.25 L 62.542 284 L 64.042 284 L 64.042 279.75 L 69.292 279.75 L 69.292 284 L 70.792 284 L 70.792 288.25 L 69.292 288.25 L 69.292 292 L 100 292 L 100 300 L 166.667 300 L 166.667 292 L 197.375 292 L 197.375 288.25 L 195.875 288.25 L 195.875 284 L 197.375 284 L 197.375 279.75 L 202.625 279.75 L 202.625 284 L 204.125 284 L 204.125 288.25 L 202.625 288.25 L 202.625 292 L 233.333 292 L 233.333 300 L 300 300 L 300 292 L 330.708 292 L 330.708 288.25 L 329.208 288.25 L 329.208 284 L 330.708 284 L 330.708 279.75 L 335.958 279.75 L 335.958 284 L 337.458 284 L 337.458 288.25 L 335.958 288.25 L 335.958 292 L 366.667 292 L 366.667 300 L 392 300 L 392 275 L 400 275 L 400 252.625 L 394.75 252.625 L 394.75 250 L 394.75 247.375 L 400 247.375 L 400 225 L 392 225 L 392 175 L 400 175 L 400 152.625 L 394.75 152.625 L 394.75 150 L 394.75 147.375 L 400 147.375 L 400 125 L 392 125 L 392 75 L 400 75 L 400 52.625 L 394.75 52.625 L 394.75 50 L 394.75 47.375 L 400 47.375 L 400 25 L 392 25 L 392 0 L 366.667 0 L 366.667 8 L 335.958 8 L 335.958 11.75 L 337.458 11.75 L 337.458 16 L 335.958 16 L 335.958 20.25 L 330.708 20.25 L 330.708 16 L 329.208 16 L 329.208 11.75 L 330.708 11.75 L 330.708 8 L 300 8 L 300 0 L 233.333 0 L 233.333 8 L 202.625 8 L 202.625 11.75 L 204.125 11.75 L 204.125 16 L 202.625 16 L 202.625 20.25 L 197.375 20.25 L 197.375 16 L 195.875 16 L 195.875 11.75 L 197.375 11.75 L 197.375 8 L 166.667 8 L 166.667 0 L 100 0 L 100 8 L 69.292 8 L 69.292 11.75 L 70.792 11.75 L 70.792 16 L 69.292 16 L 69.292 20.25 L 64.042 20.25 L 64.042 16 L 62.542 16 L 62.542 11.75 L 64.042 11.75 L 64.042 8 L 33.333 8 L 33.333 0 L 8 0 Z" id="left_outsideCutPath" stroke="#FF0000" stroke-width="0.1" style="stroke:#FF0000;stroke-width:0.1" vector-effect="non-scaling-stroke"/><path d="M 221.343 140.551 L 221.343 144.33 L 213.169 144.33 L 213.169 172.66 L 208.306 172.66 L 208.306 144.33 L 202.563 144.33 L 202.563 142.133 L 208.306 140.375 L 208.306 138.588 Q 208.306 128.371 216.013 126.974 A 14.782 14.782 0 0 1 218.647 126.752 A 15.661 15.661 0 0 1 220.863 126.922 Q 221.942 127.076 223.141 127.372 A 31.482 31.482 0 0 1 224.624 127.778 L 223.364 131.674 Q 221.366 131.029 219.783 130.842 A 10.459 10.459 0 0 0 218.56 130.766 A 6.559 6.559 0 0 0 216.979 130.945 A 4.212 4.212 0 0 0 214.487 132.597 A 5.627 5.627 0 0 0 213.743 134.097 Q 213.25 135.562 213.18 137.739 A 22.961 22.961 0 0 0 213.169 138.471 L 213.169 140.551 L 221.343 140.551 Z M 198.579 154.409 L 198.579 157.485 L 176.46 157.485 Q 176.606 163.139 179.316 166.069 A 8.837 8.837 0 0 0 183.956 168.683 A 13.389 13.389 0 0 0 186.948 168.998 A 25.686 25.686 0 0 0 196.568 167.093 A 29.434 29.434 0 0 0 197.202 166.83 L 197.202 171.166 A 29.196 29.196 0 0 1 194.541 172.171 A 22.327 22.327 0 0 1 192.324 172.763 Q 190.024 173.246 186.772 173.246 A 18.898 18.898 0 0 1 182.043 172.686 A 13.382 13.382 0 0 1 175.537 168.91 Q 171.658 164.825 171.435 157.747 A 27.78 27.78 0 0 1 171.421 156.869 Q 171.421 150.541 173.961 146.335 A 14.401 14.401 0 0 1 175.244 144.535 A 12.462 12.462 0 0 1 184.327 140.005 A 17.192 17.192 0 0 1 185.513 139.965 A 14.817 14.817 0 0 1 189.685 140.523 A 11.274 11.274 0 0 1 195.063 143.935 Q 198.579 147.905 198.579 154.409 Z M 241.968 168.647 L 241.968 172.368 A 4.784 4.784 0 0 1 241.4 172.593 Q 240.795 172.793 239.929 172.948 A 18.187 18.187 0 0 1 239.639 172.997 Q 238.203 173.23 237.035 173.245 A 12.468 12.468 0 0 1 236.87 173.246 A 12.702 12.702 0 0 1 233.127 172.743 Q 227.554 171.023 227.554 163.432 L 227.554 144.33 L 222.954 144.33 L 222.954 141.987 L 227.554 139.965 L 229.604 133.11 L 232.417 133.11 L 232.417 140.551 L 241.733 140.551 L 241.733 144.33 L 232.417 144.33 L 232.417 163.227 A 9.793 9.793 0 0 0 232.558 164.947 Q 232.858 166.625 233.794 167.68 A 4.518 4.518 0 0 0 236.571 169.158 A 6.5 6.5 0 0 0 237.573 169.233 A 15.972 15.972 0 0 0 239.913 169.065 A 14.725 14.725 0 0 0 240.063 169.042 A 26.309 26.309 0 0 0 240.766 168.922 Q 241.437 168.797 241.903 168.666 A 7.307 7.307 0 0 0 241.968 168.647 Z M 162.896 127.075 L 162.896 172.66 L 158.032 172.66 L 158.032 127.075 L 162.896 127.075 Z M 176.577 153.53 L 193.364 153.53 A 16.572 16.572 0 0 0 193.164 150.865 Q 192.931 149.436 192.426 148.293 A 7.524 7.524 0 0 0 191.313 146.484 Q 189.263 144.037 185.454 144.037 A 9.587 9.587 0 0 0 182.685 144.418 A 7.406 7.406 0 0 0 179.287 146.557 A 9.607 9.607 0 0 0 177.377 149.78 Q 176.769 151.442 176.577 153.53 Z" id="left_labelLayer" stroke="#777777" fill="#777777" style="stroke:#777777;fill:#777777" vector-effect="non-scaling-stroke"/></g></svg>