<svg width="400mm" height="300mm" viewBox="0 0 400 300" xmlns="http://www.w3.org/2000/svg" version="1.1" preserveAspectRatio="xMidYMid meet"><g id="svgGroup" stroke-linecap="round" fill-rule="evenodd" font-size="9pt" stroke="#000" stroke-width="0.25mm" fill="none" style="stroke:#000;stroke-width:0.25mm;fill:none"><path d="M 8 0 L 8 25 L 0 25 L 0 47.375 L 5.25 47.375 L 5.25 50 L 5.25 52.625 L 0 52.625 L 0 75 L 8 75 L 8 125 L 0 125 L 0 147.375 L 5.25 147.375 L 5.25 150 L 5.25 152.625 L 0 152.625 L 0 175 L 8 175 L 8 225 L 0 225 L 0 247.375 L 5.25 247.375 L 5.25 250 L 5.25 252.625 L 0 252.625 L 0 275 L 8 275 L 8 300 L 33.333 300 L 33.333 292 L 64.042 292 L 64.042 288.25 L 62.542 288.25 L 62.542 284 L 64.042 284 L 64.042 279.75 L 69.292 279.75 L 69.292 284 L 70.792 284 L 70.792 288.25 L 69.292 288.25 L 69.292 292 L 100 292 L 100 300 L 166.667 300 L 166.667 292 L 197.375 292 L 197.375 288.25 L 195.875 288.25 L 195.875 284 L 197.375 284 L 197.375 279.75 L 202.625 279.75 L 202.625 284 L 204.125 284 L 204.125 288.25 L 202.625 288.25 L 202.625 292 L 233.333 292 L 233.333 300 L 300 300 L 300 292 L 330.708 292 L 330.708 288.25 L 329.208 288.25 L 329.208 284 L 330.708 284 L 330.708 279.75 L 335.958 279.75 L 335.958 284 L 337.458 284 L 337.458 288.25 L 335.958 288.25 L 335.958 292 L 366.667 292 L 366.667 300 L 392 300 L 392 275 L 400 275 L 400 252.625 L 394.75 252.625 L 394.75 250 L 394.75 247.375 L 400 247.375 L 400 225 L 392 225 L 392 175 L 400 175 L 400 152.625 L 394.75 152.625 L 394.75 150 L 394.75 147.375 L 400 147.375 L 400 125 L 392 125 L 392 75 L 400 75 L 400 52.625 L 394.75 52.625 L 394.75 50 L 394.75 47.375 L 400 47.375 L 400 25 L 392 25 L 392 0 L 366.667 0 L 366.667 8 L 335.958 8 L 335.958 11.75 L 337.458 11.75 L 337.458 16 L 335.958 16 L 335.958 20.25 L 330.708 20.25 L 330.708 16 L 329.208 16 L 329.208 11.75 L 330.708 11.75 L 330.708 8 L 300 8 L 300 0 L 233.333 0 L 233.333 8 L 202.625 8 L 202.625 11.75 L 204.125 11.75 L 204.125 16 L 202.625 16 L 202.625 20.25 L 197.375 20.25 L 197.375 16 L 195.875 16 L 195.875 11.75 L 197.375 11.75 L 197.375 8 L 166.667 8 L 166.667 0 L 100 0 L 100 8 L 69.292 8 L 69.292 11.75 L 70.792 11.75 L 70.792 16 L 69.292 16 L 69.292 20.25 L 64.042 20.25 L 64.042 16 L 62.542 16 L 62.542 11.75 L 64.042 11.75 L 64.042 8 L 33.333 8 L 33.333 0 L 8 0 Z" id="right_outsideCutPath" stroke="#FF0000" stroke-width="0.1" style="stroke:#FF0000;stroke-width:0.1" vector-effect="non-scaling-stroke"/><path d="M 237.31 165.586 L 232.446 165.586 L 232.446 144.814 Q 232.446 142.312 231.72 140.619 A 5.785 5.785 0 0 0 230.659 138.955 Q 229.212 137.39 226.441 137.091 A 12.893 12.893 0 0 0 225.063 137.021 Q 221.754 137.021 219.612 138.195 A 6.809 6.809 0 0 0 217.666 139.775 Q 215.537 142.293 215.354 147.75 A 31.388 31.388 0 0 0 215.337 148.799 L 215.337 165.586 L 210.474 165.586 L 210.474 120 L 215.337 120 L 215.337 133.799 Q 215.337 135.591 215.216 136.943 A 19.024 19.024 0 0 1 215.103 137.93 L 215.396 137.93 A 9.716 9.716 0 0 1 218.8 134.653 A 11.87 11.87 0 0 1 219.482 134.282 A 12.485 12.485 0 0 1 223.58 133.067 A 15.784 15.784 0 0 1 225.532 132.949 A 19.731 19.731 0 0 1 228.847 133.209 Q 232.318 133.802 234.365 135.747 Q 237.31 138.545 237.31 144.638 L 237.31 165.586 Z M 192.778 133.476 L 203.882 133.476 L 203.882 136.553 L 197.935 137.256 A 7.903 7.903 0 0 1 198.619 138.273 Q 199.037 139.005 199.399 139.936 A 9.356 9.356 0 0 1 199.953 142.171 A 12.015 12.015 0 0 1 200.044 143.672 A 11.149 11.149 0 0 1 199.532 147.128 A 9.017 9.017 0 0 1 196.821 151.201 Q 193.599 154.013 187.974 154.013 A 15.63 15.63 0 0 1 186.165 153.913 A 13.198 13.198 0 0 1 185.278 153.779 Q 182.173 155.42 182.173 157.91 Q 182.173 159.188 183.191 159.819 A 2.7 2.7 0 0 0 183.257 159.858 A 3.411 3.411 0 0 0 184.013 160.17 Q 185.103 160.488 186.978 160.488 L 192.661 160.488 A 19.907 19.907 0 0 1 195.684 160.703 Q 198.75 161.175 200.674 162.685 A 7.115 7.115 0 0 1 203.318 167.218 A 10.686 10.686 0 0 1 203.472 169.072 A 10.53 10.53 0 0 1 202.87 172.715 Q 201.868 175.453 199.194 177.202 Q 194.917 180 186.714 180 Q 182.58 180 179.689 178.99 A 11.302 11.302 0 0 1 177.002 177.656 Q 173.81 175.464 173.603 171.58 A 10.269 10.269 0 0 1 173.589 171.035 Q 173.589 168.105 175.464 165.967 A 8.492 8.492 0 0 1 178.381 163.841 A 12.036 12.036 0 0 1 180.737 163.066 A 5.047 5.047 0 0 1 178.778 161.482 A 5.992 5.992 0 0 1 178.672 161.338 A 4.509 4.509 0 0 1 177.844 158.901 A 5.584 5.584 0 0 1 177.837 158.613 A 5.561 5.561 0 0 1 178.117 156.822 A 4.929 4.929 0 0 1 178.774 155.537 A 6.961 6.961 0 0 1 179.694 154.5 Q 180.517 153.728 181.733 152.988 A 8.526 8.526 0 0 1 178.03 150.023 A 10.567 10.567 0 0 1 177.676 149.502 A 10.054 10.054 0 0 1 176.133 144.657 A 12.27 12.27 0 0 1 176.108 143.877 A 14.051 14.051 0 0 1 176.478 140.554 A 9.244 9.244 0 0 1 179.272 135.747 A 10.328 10.328 0 0 1 183.236 133.561 Q 185.428 132.89 188.237 132.89 A 18.641 18.641 0 0 1 190.703 133.046 A 14.198 14.198 0 0 1 192.778 133.476 Z M 262.065 161.572 L 262.065 165.293 A 4.784 4.784 0 0 1 261.498 165.518 Q 260.893 165.719 260.027 165.873 A 18.187 18.187 0 0 1 259.736 165.923 Q 258.3 166.155 257.133 166.171 A 12.468 12.468 0 0 1 256.968 166.172 A 12.702 12.702 0 0 1 253.224 165.668 Q 247.651 163.948 247.651 156.357 L 247.651 137.256 L 243.052 137.256 L 243.052 134.912 L 247.651 132.89 L 249.702 126.035 L 252.515 126.035 L 252.515 133.476 L 261.831 133.476 L 261.831 137.256 L 252.515 137.256 L 252.515 156.152 A 9.793 9.793 0 0 0 252.656 157.872 Q 252.956 159.55 253.892 160.605 A 4.518 4.518 0 0 0 256.669 162.084 A 6.5 6.5 0 0 0 257.671 162.158 A 15.972 15.972 0 0 0 260.011 161.991 A 14.725 14.725 0 0 0 260.161 161.968 A 26.309 26.309 0 0 0 260.863 161.847 Q 261.534 161.722 262 161.591 A 7.307 7.307 0 0 0 262.065 161.572 Z M 156.421 133.242 L 155.747 137.754 A 21.434 21.434 0 0 0 154.206 137.469 Q 153.437 137.358 152.753 137.327 A 11.407 11.407 0 0 0 152.231 137.314 Q 148.335 137.314 145.566 140.478 A 11.106 11.106 0 0 0 142.887 146.714 A 14.762 14.762 0 0 0 142.798 148.359 L 142.798 165.586 L 137.935 165.586 L 137.935 133.476 L 141.948 133.476 L 142.505 139.424 L 142.739 139.424 A 16.423 16.423 0 0 1 144.576 136.8 A 12.545 12.545 0 0 1 147.046 134.59 A 9.695 9.695 0 0 1 152.583 132.89 A 22.327 22.327 0 0 1 154.582 132.976 A 16.295 16.295 0 0 1 156.421 133.242 Z M 167.29 133.476 L 167.29 165.586 L 162.427 165.586 L 162.427 133.476 L 167.29 133.476 Z M 191.108 164.853 L 185.278 164.853 Q 181.968 164.853 180.122 166.435 A 5.125 5.125 0 0 0 178.439 169.341 A 7.782 7.782 0 0 0 178.276 170.976 Q 178.276 173.584 180.474 174.931 Q 182.66 176.273 186.732 176.279 A 24.983 24.983 0 0 0 186.772 176.279 A 32.693 32.693 0 0 0 189.965 176.134 Q 193.166 175.819 195.175 174.818 A 8.077 8.077 0 0 0 195.84 174.448 A 7.094 7.094 0 0 0 197.486 173.071 A 5.317 5.317 0 0 0 198.784 169.482 A 6.58 6.58 0 0 0 198.664 168.176 Q 198.511 167.424 198.165 166.864 A 3.065 3.065 0 0 0 197.173 165.864 A 4.613 4.613 0 0 0 196.079 165.387 Q 194.913 165.028 193.07 164.911 A 30.945 30.945 0 0 0 191.108 164.853 Z M 181.997 147.909 A 5.203 5.203 0 0 0 182.817 148.857 A 6.286 6.286 0 0 0 185.347 150.231 Q 186.31 150.508 187.461 150.569 A 12.522 12.522 0 0 0 188.12 150.586 A 10.595 10.595 0 0 0 190.894 150.255 Q 194.068 149.392 194.924 146.277 A 9.85 9.85 0 0 0 195.239 143.672 Q 195.239 137.93 190.701 136.744 A 10.577 10.577 0 0 0 188.032 136.435 A 10.205 10.205 0 0 0 185.953 136.634 Q 184.678 136.9 183.707 137.52 A 5.598 5.598 0 0 0 182.759 138.281 Q 180.913 140.127 180.913 143.76 Q 180.913 146.301 181.997 147.909 Z M 162.837 122.329 A 2.275 2.275 0 0 0 162.334 123.043 Q 162.017 123.736 162.017 124.775 A 5.742 5.742 0 0 0 162.042 125.324 Q 162.089 125.816 162.225 126.217 A 2.511 2.511 0 0 0 162.837 127.222 Q 163.657 128.027 164.888 128.027 A 2.837 2.837 0 0 0 166.909 127.222 Q 167.5 126.661 167.68 125.697 A 5.032 5.032 0 0 0 167.759 124.775 A 5.563 5.563 0 0 0 167.735 124.248 Q 167.689 123.768 167.556 123.376 A 2.456 2.456 0 0 0 166.909 122.344 A 2.865 2.865 0 0 0 164.888 121.553 Q 163.657 121.553 162.837 122.329 Z" id="right_labelLayer" stroke="#777777" fill="#777777" style="stroke:#777777;fill:#777777" vector-effect="non-scaling-stroke"/></g></svg>