<?xml version="1.0"?>
<!DOCTYPE svg PUBLIC "-//W3C//DTD SVG 1.1//EN" "http://www.w3.org/Graphics/SVG/1.1/DTD/svg11.dtd">
<svg width="408.0mm" height="308.0mm" viewBox="0 0 408.0 308.0" xmlns="http://www.w3.org/2000/svg" version="1.1">
<g id="front_outsideCutPath" transform="translate(4.000000,4.000000) scale(1,-1)">
<path id="front_outsideCutPath_w0000"  d="M 0.0 0.0 L 0.0 -25.0 L 8.0 -25.0 L 8.0 -47.375 L 11.75 -47.375 L 11.75 -45.875 L 16.0 -45.875 L 16.0 -47.375 L 20.25 -47.375 L 20.25 -52.625 L 16.0 -52.625 L 16.0 -54.125 L 11.75 -54.125 L 11.75 -52.625 L 8.0 -52.625 L 8.0 -75.0 L 0.0 -75.0 L 0.0 -125.0 L 8.0 -125.0 L 8.0 -147.375 L 11.75 -147.375 L 11.75 -145.875 L 16.0 -145.875 L 16.0 -147.375 L 20.25 -147.375 L 20.25 -152.625 L 16.0 -152.625 L 16.0 -154.125 L 11.75 -154.125 L 11.75 -152.625 L 8.0 -152.625 L 8.0 -175.0 L 0.0 -175.0 L 0.0 -225.0 L 8.0 -225.0 L 8.0 -247.375 L 11.75 -247.375 L 11.75 -245.875 L 16.0 -245.875 L 16.0 -247.375 L 20.25 -247.375 L 20.25 -252.625 L 16.0 -252.625 L 16.0 -254.125 L 11.75 -254.125 L 11.75 -252.625 L 8.0 -252.625 L 8.0 -275.0 L 0.0 -275.0 L 0.0 -300.0 L 33.333 -300.0 L 33.333 -292.0 L 64.042 -292.0 L 64.042 -288.25 L 62.542 -288.25 L 62.542 -284.0 L 64.042 -284.0 L 64.042 -279.75 L 69.292 -279.75 L 69.292 -284.0 L 70.792 -284.0 L 70.792 -288.25 L 69.292 -288.25 L 69.292 -292.0 L 100.0 -292.0 L 100.0 -300.0 L 166.667 -300.0 L 166.667 -292.0 L 197.375 -292.0 L 197.375 -288.25 L 195.875 -288.25 L 195.875 -284.0 L 197.375 -284.0 L 197.375 -279.75 L 202.625 -279.75 L 202.625 -284.0 L 204.125 -284.0 L 204.125 -288.25 L 202.625 -288.25 L 202.625 -292.0 L 233.333 -292.0 L 233.333 -300.0 L 300.0 -300.0 L 300.0 -292.0 L 330.708 -292.0 L 330.708 -288.25 L 329.208 -288.25 L 329.208 -284.0 L 330.708 -284.0 L 330.708 -279.75 L 335.958 -279.75 L 335.958 -284.0 L 337.458 -284.0 L 337.458 -288.25 L 335.958 -288.25 L 335.958 -292.0 L 366.667 -292.0 L 366.667 -300.0 L 400.0 -300.0 L 400.0 -275.0 L 392.0 -275.0 L 392.0 -252.625 L 388.25 -252.625 L 388.25 -254.125 L 384.0 -254.125 L 384.0 -252.625 L 379.75 -252.625 L 379.75 -247.375 L 384.0 -247.375 L 384.0 -245.875 L 388.25 -245.875 L 388.25 -247.375 L 392.0 -247.375 L 392.0 -225.0 L 400.0 -225.0 L 400.0 -175.0 L 392.0 -175.0 L 392.0 -152.625 L 388.25 -152.625 L 388.25 -154.125 L 384.0 -154.125 L 384.0 -152.625 L 379.75 -152.625 L 379.75 -147.375 L 384.0 -147.375 L 384.0 -145.875 L 388.25 -145.875 L 388.25 -147.375 L 392.0 -147.375 L 392.0 -125.0 L 400.0 -125.0 L 400.0 -75.0 L 392.0 -75.0 L 392.0 -52.625 L 388.25 -52.625 L 388.25 -54.125 L 384.0 -54.125 L 384.0 -52.625 L 379.75 -52.625 L 379.75 -47.375 L 384.0 -47.375 L 384.0 -45.875 L 388.25 -45.875 L 388.25 -47.375 L 392.0 -47.375 L 392.0 -25.0 L 400.0 -25.0 L 400.0 0.0 L 366.667 0.0 L 366.667 -8.0 L 335.958 -8.0 L 335.958 -11.75 L 337.458 -11.75 L 337.458 -16.0 L 335.958 -16.0 L 335.958 -20.25 L 330.708 -20.25 L 330.708 -16.0 L 329.208 -16.0 L 329.208 -11.75 L 330.708 -11.75 L 330.708 -8.0 L 300.0 -8.0 L 300.0 0.0 L 233.333 0.0 L 233.333 -8.0 L 202.625 -8.0 L 202.625 -11.75 L 204.125 -11.75 L 204.125 -16.0 L 202.625 -16.0 L 202.625 -20.25 L 197.375 -20.25 L 197.375 -16.0 L 195.875 -16.0 L 195.875 -11.75 L 197.375 -11.75 L 197.375 -8.0 L 166.667 -8.0 L 166.667 0.0 L 100.0 0.0 L 100.0 -8.0 L 69.292 -8.0 L 69.292 -11.75 L 70.792 -11.75 L 70.792 -16.0 L 69.292 -16.0 L 69.292 -20.25 L 64.042 -20.25 L 64.042 -16.0 L 62.542 -16.0 L 62.542 -11.75 L 64.042 -11.75 L 64.042 -8.0 L 33.333 -8.0 L 33.333 0.0 L 0.0 0.0 " stroke="#ff0000" stroke-width="0.35 px" style="stroke-width:0.35;stroke-miterlimit:4;stroke-dasharray:none;stroke-linecap:square;fill:none;fill-opacity:1;fill-rule: evenodd"/>
<title>b'front_outsideCutPath'</title>
</g>
<g id="Sketch" transform="translate(4.000000,4.000000) scale(1,-1)">
<path id="Sketch_w0000"  d="M 60.0 -50.0 L 340.0 -50.0 L 340.0 -250.0 L 60.0 -250.0 L 60.0 -50.0 " stroke="#000000" stroke-width="0.35 px" style="stroke-width:0.35;stroke-miterlimit:4;stroke-dasharray:none;stroke-linecap:square;fill:none;fill-opacity:1;fill-rule: evenodd"/>
<path id="Sketch_w0001"  d="M 200.0 -50.0 L 200.0 -250.0 " stroke="#000000" stroke-width="0.35 px" style="stroke-width:0.35;stroke-miterlimit:4;stroke-dasharray:none;stroke-linecap:square;fill:none;fill-opacity:1;fill-rule: evenodd"/>
<title>b'Sketch'</title>
</g>
</svg>