<svg width="400mm" height="400mm" viewBox="0 0 400 400" xmlns="http://www.w3.org/2000/svg" version="1.1" preserveAspectRatio="xMidYMid meet"><g id="svgGroup" stroke-linecap="round" fill-rule="evenodd" font-size="9pt" stroke="#000" stroke-width="0.25mm" fill="none" style="stroke:#000;stroke-width:0.25mm;fill:none"><path d="M 8 8 L 8 33.333 L 0 33.333 L 0 64.042 L 5.25 64.042 L 5.25 66.667 L 5.25 69.292 L 0 69.292 L 0 100 L 8 100 L 8 166.667 L 0 166.667 L 0 197.375 L 5.25 197.375 L 5.25 200 L 5.25 202.625 L 0 202.625 L 0 233.333 L 8 233.333 L 8 300 L 0 300 L 0 330.708 L 5.25 330.708 L 5.25 333.333 L 5.25 335.958 L 0 335.958 L 0 366.667 L 8 366.667 L 8 392 L 33.333 392 L 33.333 400 L 64.042 400 L 64.042 394.75 L 66.667 394.75 L 69.292 394.75 L 69.292 400 L 100 400 L 100 392 L 166.667 392 L 166.667 400 L 197.375 400 L 197.375 394.75 L 200 394.75 L 202.625 394.75 L 202.625 400 L 233.333 400 L 233.333 392 L 300 392 L 300 400 L 330.708 400 L 330.708 394.75 L 333.333 394.75 L 335.958 394.75 L 335.958 400 L 366.667 400 L 366.667 392 L 392 392 L 392 366.667 L 400 366.667 L 400 335.958 L 394.75 335.958 L 394.75 333.333 L 394.75 330.708 L 400 330.708 L 400 300 L 392 300 L 392 233.333 L 400 233.333 L 400 202.625 L 394.75 202.625 L 394.75 200 L 394.75 197.375 L 400 197.375 L 400 166.667 L 392 166.667 L 392 100 L 400 100 L 400 69.292 L 394.75 69.292 L 394.75 66.667 L 394.75 64.042 L 400 64.042 L 400 33.333 L 392 33.333 L 392 8 L 366.667 8 L 366.667 0 L 335.958 0 L 335.958 5.25 L 333.333 5.25 L 330.708 5.25 L 330.708 0 L 300 0 L 300 8 L 233.333 8 L 233.333 0 L 202.625 0 L 202.625 5.25 L 200 5.25 L 197.375 5.25 L 197.375 0 L 166.667 0 L 166.667 8 L 100 8 L 100 0 L 69.292 0 L 69.292 5.25 L 66.667 5.25 L 64.042 5.25 L 64.042 0 L 33.333 0 L 33.333 8 L 8 8 Z" id="bottom_outsideCutPath" stroke="#FF0000" stroke-width="0.1" style="stroke:#FF0000;stroke-width:0.1" vector-effect="non-scaling-stroke"/><path d="M 331.601 229.999 L 325.117 229.999 L 325.117 202.147 A 19.129 19.129 0 0 0 324.924 199.335 Q 324.71 197.898 324.258 196.74 A 7.836 7.836 0 0 0 322.929 194.472 A 6.823 6.823 0 0 0 319.758 192.42 Q 318.627 192.056 317.249 191.953 A 15.052 15.052 0 0 0 316.133 191.913 Q 311.887 191.913 309.197 193.623 A 8.587 8.587 0 0 0 307.187 195.39 Q 304.31 198.85 304.297 206.026 A 35.936 35.936 0 0 0 304.297 206.093 L 304.297 229.999 L 297.812 229.999 L 297.812 202.147 A 19.129 19.129 0 0 0 297.62 199.335 Q 297.405 197.898 296.954 196.74 A 7.836 7.836 0 0 0 295.625 194.472 Q 293.732 192.257 289.995 191.959 A 15.184 15.184 0 0 0 288.789 191.913 A 16.105 16.105 0 0 0 285.458 192.235 Q 283.403 192.67 281.872 193.692 A 8.499 8.499 0 0 0 279.863 195.565 A 10.874 10.874 0 0 0 278.251 198.628 Q 277.205 201.585 277.056 206.019 A 45.147 45.147 0 0 0 277.031 207.538 L 277.031 229.999 L 270.547 229.999 L 270.547 187.186 L 275.82 187.186 L 276.875 193.046 L 277.187 193.046 A 12.744 12.744 0 0 1 282.363 188.163 A 15.395 15.395 0 0 1 288.444 186.457 A 18.594 18.594 0 0 1 289.844 186.405 A 21.23 21.23 0 0 1 294.622 186.903 Q 300.69 188.307 302.969 193.671 L 303.281 193.671 A 13.539 13.539 0 0 1 308.381 188.608 A 16.266 16.266 0 0 1 308.828 188.358 A 16.412 16.412 0 0 1 314.848 186.527 A 20.464 20.464 0 0 1 317.109 186.405 A 22.54 22.54 0 0 1 321.198 186.752 Q 323.47 187.171 325.245 188.1 A 10.686 10.686 0 0 1 327.988 190.136 Q 330.619 192.852 331.334 197.939 A 29.742 29.742 0 0 1 331.601 202.069 L 331.601 229.999 Z M 74.883 224.491 L 74.414 224.491 L 73.047 229.999 L 68.398 229.999 L 68.398 169.218 L 74.883 169.218 L 74.883 183.983 A 135.194 135.194 0 0 1 74.809 188.551 Q 74.736 190.711 74.59 192.634 A 80.969 80.969 0 0 1 74.57 192.89 L 74.883 192.89 Q 79.414 186.483 88.32 186.483 A 19.818 19.818 0 0 1 93.898 187.227 A 14.836 14.836 0 0 1 101.426 192.245 A 19.108 19.108 0 0 1 104.776 198.698 Q 105.6 201.356 105.908 204.541 A 41.621 41.621 0 0 1 106.094 208.554 Q 106.094 215.996 103.75 221.094 A 18.226 18.226 0 0 1 101.387 224.94 A 15.351 15.351 0 0 1 90.476 230.677 A 21.993 21.993 0 0 1 88.32 230.78 A 19.669 19.669 0 0 1 83.378 230.178 A 17.113 17.113 0 0 1 80.683 229.237 A 14.362 14.362 0 0 1 74.883 224.491 Z M 185.429 224.647 L 185.429 229.608 A 6.378 6.378 0 0 1 184.673 229.909 Q 183.734 230.22 182.324 230.448 Q 180.273 230.78 178.633 230.78 A 16.936 16.936 0 0 1 173.642 230.109 Q 168.156 228.416 166.72 222.456 A 20.382 20.382 0 0 1 166.211 217.694 L 166.211 192.226 L 160.078 192.226 L 160.078 189.101 L 166.211 186.405 L 168.945 177.265 L 172.695 177.265 L 172.695 187.186 L 185.117 187.186 L 185.117 192.226 L 172.695 192.226 L 172.695 217.421 Q 172.695 221.288 174.531 223.358 A 6.024 6.024 0 0 0 178.234 225.33 A 8.667 8.667 0 0 0 179.57 225.429 Q 181.289 225.429 182.89 225.175 A 35.078 35.078 0 0 0 183.827 225.014 Q 184.721 224.847 185.343 224.672 A 9.736 9.736 0 0 0 185.429 224.647 Z M 213.672 224.647 L 213.672 229.608 A 6.378 6.378 0 0 1 212.915 229.909 Q 211.976 230.22 210.566 230.448 Q 208.515 230.78 206.875 230.78 A 16.936 16.936 0 0 1 201.884 230.109 Q 196.398 228.416 194.962 222.456 A 20.382 20.382 0 0 1 194.453 217.694 L 194.453 192.226 L 188.32 192.226 L 188.32 189.101 L 194.453 186.405 L 197.187 177.265 L 200.937 177.265 L 200.937 187.186 L 213.359 187.186 L 213.359 192.226 L 200.937 192.226 L 200.937 217.421 Q 200.937 221.288 202.773 223.358 A 6.024 6.024 0 0 0 206.476 225.33 A 8.667 8.667 0 0 0 207.812 225.429 Q 209.531 225.429 211.133 225.175 A 35.078 35.078 0 0 0 212.069 225.014 Q 212.964 224.847 213.585 224.672 A 9.736 9.736 0 0 0 213.672 224.647 Z M 153.78 215.069 A 33.494 33.494 0 0 0 154.375 208.554 A 38.056 38.056 0 0 0 154.361 207.524 Q 154.265 203.96 153.493 200.933 A 20.191 20.191 0 0 0 149.082 192.382 A 16.975 16.975 0 0 0 141.201 187.299 A 21.789 21.789 0 0 0 134.804 186.405 A 25.185 25.185 0 0 0 130.281 186.793 A 17.151 17.151 0 0 0 120.273 192.245 A 17.914 17.914 0 0 0 118.073 195.296 Q 116.378 198.25 115.63 202.042 A 33.668 33.668 0 0 0 115.039 208.554 A 32.439 32.439 0 0 0 115.446 213.808 A 23.988 23.988 0 0 0 117.461 220.351 A 21.313 21.313 0 0 0 117.933 221.275 A 17.555 17.555 0 0 0 124.336 228.085 A 18.056 18.056 0 0 0 128.48 229.928 A 20.823 20.823 0 0 0 134.531 230.78 A 25.18 25.18 0 0 0 138.928 230.413 A 17.287 17.287 0 0 0 149.101 224.901 Q 152.603 220.997 153.78 215.069 Z M 258.584 215.069 A 33.494 33.494 0 0 0 259.179 208.554 A 38.056 38.056 0 0 0 259.166 207.524 Q 259.069 203.96 258.298 200.933 A 20.191 20.191 0 0 0 253.887 192.382 A 16.975 16.975 0 0 0 246.006 187.299 A 21.789 21.789 0 0 0 239.609 186.405 A 25.185 25.185 0 0 0 235.086 186.793 A 17.151 17.151 0 0 0 225.078 192.245 A 17.914 17.914 0 0 0 222.878 195.296 Q 221.182 198.25 220.434 202.042 A 33.668 33.668 0 0 0 219.844 208.554 A 32.439 32.439 0 0 0 220.251 213.808 A 23.988 23.988 0 0 0 222.265 220.351 A 21.313 21.313 0 0 0 222.737 221.275 A 17.555 17.555 0 0 0 229.14 228.085 A 18.056 18.056 0 0 0 233.285 229.928 A 20.823 20.823 0 0 0 239.336 230.78 A 25.18 25.18 0 0 0 243.733 230.413 A 17.287 17.287 0 0 0 253.906 224.901 Q 257.408 220.997 258.584 215.069 Z M 123.139 217.555 A 13.604 13.604 0 0 0 125.039 221.054 Q 128.32 225.351 134.687 225.351 A 15.062 15.062 0 0 0 138.661 224.857 A 10.482 10.482 0 0 0 144.355 221.073 A 13.92 13.92 0 0 0 146.523 216.851 Q 147.16 214.9 147.439 212.519 A 34.156 34.156 0 0 0 147.656 208.554 A 32.354 32.354 0 0 0 147.35 203.943 Q 147.011 201.596 146.298 199.695 A 13.351 13.351 0 0 0 144.355 196.151 A 10.667 10.667 0 0 0 137.724 192.195 A 16.354 16.354 0 0 0 134.609 191.913 A 15.432 15.432 0 0 0 130.767 192.363 A 10.328 10.328 0 0 0 125 196.093 Q 121.758 200.272 121.758 208.554 Q 121.758 213.877 123.139 217.555 Z M 227.944 217.555 A 13.604 13.604 0 0 0 229.844 221.054 Q 233.125 225.351 239.492 225.351 A 15.062 15.062 0 0 0 243.466 224.857 A 10.482 10.482 0 0 0 249.16 221.073 A 13.92 13.92 0 0 0 251.328 216.851 Q 251.965 214.9 252.244 212.519 A 34.156 34.156 0 0 0 252.461 208.554 A 32.354 32.354 0 0 0 252.154 203.943 Q 251.816 201.596 251.102 199.695 A 13.351 13.351 0 0 0 249.16 196.151 A 10.667 10.667 0 0 0 242.528 192.195 A 16.354 16.354 0 0 0 239.414 191.913 A 15.432 15.432 0 0 0 235.572 192.363 A 10.328 10.328 0 0 0 229.804 196.093 Q 226.562 200.272 226.562 208.554 Q 226.562 213.877 227.944 217.555 Z M 80.317 193.523 A 8.624 8.624 0 0 0 77.812 195.722 A 11.1 11.1 0 0 0 76.205 198.782 Q 75.122 201.821 74.926 206.44 A 49.959 49.959 0 0 0 74.883 208.554 A 42.874 42.874 0 0 0 75.095 212.985 Q 75.682 218.61 77.89 221.464 Q 80.587 224.948 86.203 225.309 A 20.85 20.85 0 0 0 87.539 225.351 A 12.927 12.927 0 0 0 91.211 224.859 A 9.325 9.325 0 0 0 96.445 220.995 A 14.885 14.885 0 0 0 98.287 217.011 Q 99.375 213.451 99.375 208.476 A 38.31 38.31 0 0 0 99.143 204.11 Q 98.594 199.335 96.742 196.453 A 10.757 10.757 0 0 0 96.445 196.015 A 9.456 9.456 0 0 0 90.425 192.205 A 14.997 14.997 0 0 0 87.383 191.913 Q 83.066 191.913 80.317 193.523 Z" id="bottom_labelLayer" stroke="#777777" fill="#777777" style="stroke:#777777;fill:#777777" vector-effect="non-scaling-stroke"/></g></svg>