<svg width="400mm" height="400mm" viewBox="0 0 400 400" xmlns="http://www.w3.org/2000/svg" version="1.1" preserveAspectRatio="xMidYMid meet"><g id="svgGroup" stroke-linecap="round" fill-rule="evenodd" font-size="9pt" stroke="#000" stroke-width="0.25mm" fill="none" style="stroke:#000;stroke-width:0.25mm;fill:none"><path d="M 8 8 L 8 33.333 L 0 33.333 L 0 64.042 L 5.25 64.042 L 5.25 66.667 L 5.25 69.292 L 0 69.292 L 0 100 L 8 100 L 8 166.667 L 0 166.667 L 0 197.375 L 5.25 197.375 L 5.25 200 L 5.25 202.625 L 0 202.625 L 0 233.333 L 8 233.333 L 8 300 L 0 300 L 0 330.708 L 5.25 330.708 L 5.25 333.333 L 5.25 335.958 L 0 335.958 L 0 366.667 L 8 366.667 L 8 392 L 33.333 392 L 33.333 400 L 64.042 400 L 64.042 394.75 L 66.667 394.75 L 69.292 394.75 L 69.292 400 L 100 400 L 100 392 L 166.667 392 L 166.667 400 L 197.375 400 L 197.375 394.75 L 200 394.75 L 202.625 394.75 L 202.625 400 L 233.333 400 L 233.333 392 L 300 392 L 300 400 L 330.708 400 L 330.708 394.75 L 333.333 394.75 L 335.958 394.75 L 335.958 400 L 366.667 400 L 366.667 392 L 392 392 L 392 366.667 L 400 366.667 L 400 335.958 L 394.75 335.958 L 394.75 333.333 L 394.75 330.708 L 400 330.708 L 400 300 L 392 300 L 392 233.333 L 400 233.333 L 400 202.625 L 394.75 202.625 L 394.75 200 L 394.75 197.375 L 400 197.375 L 400 166.667 L 392 166.667 L 392 100 L 400 100 L 400 69.292 L 394.75 69.292 L 394.75 66.667 L 394.75 64.042 L 400 64.042 L 400 33.333 L 392 33.333 L 392 8 L 366.667 8 L 366.667 0 L 335.958 0 L 335.958 5.25 L 333.333 5.25 L 330.708 5.25 L 330.708 0 L 300 0 L 300 8 L 233.333 8 L 233.333 0 L 202.625 0 L 202.625 5.25 L 200 5.25 L 197.375 5.25 L 197.375 0 L 166.667 0 L 166.667 8 L 100 8 L 100 0 L 69.292 0 L 69.292 5.25 L 66.667 5.25 L 64.042 5.25 L 64.042 0 L 33.333 0 L 33.333 8 L 8 8 Z" id="top_outsideCutPath" stroke="#FF0000" stroke-width="0.1" style="stroke:#FF0000;stroke-width:0.1" vector-effect="non-scaling-stroke"/><path d="M 228.75 211.25 L 228.281 211.25 A 61.366 61.366 0 0 1 228.684 215.785 A 51.422 51.422 0 0 1 228.75 218.359 L 228.75 235.977 L 222.265 235.977 L 222.265 173.945 L 227.539 173.945 L 228.437 179.805 L 228.75 179.805 A 17.454 17.454 0 0 1 231.274 176.938 A 13.497 13.497 0 0 1 234.57 174.727 A 16.239 16.239 0 0 1 239.225 173.366 A 21.018 21.018 0 0 1 242.187 173.164 Q 250.703 173.164 255.332 178.984 A 19.47 19.47 0 0 1 258.654 185.471 Q 259.961 189.73 259.961 195.313 Q 259.961 202.755 257.617 207.853 A 18.226 18.226 0 0 1 255.254 211.699 A 15.351 15.351 0 0 1 244.343 217.436 A 21.993 21.993 0 0 1 242.187 217.539 A 19.669 19.669 0 0 1 237.245 216.936 A 17.113 17.113 0 0 1 234.55 215.996 A 14.362 14.362 0 0 1 228.75 211.25 Z M 165.39 211.406 L 165.39 216.367 A 6.378 6.378 0 0 1 164.634 216.667 Q 163.695 216.979 162.285 217.207 Q 160.234 217.539 158.593 217.539 A 16.936 16.936 0 0 1 153.602 216.867 Q 148.116 215.174 146.681 209.215 A 20.382 20.382 0 0 1 146.172 204.453 L 146.172 178.984 L 140.039 178.984 L 140.039 175.859 L 146.172 173.164 L 148.906 164.023 L 152.656 164.023 L 152.656 173.945 L 165.078 173.945 L 165.078 178.984 L 152.656 178.984 L 152.656 204.18 Q 152.656 208.047 154.492 210.117 A 6.024 6.024 0 0 0 158.195 212.088 A 8.667 8.667 0 0 0 159.531 212.188 Q 161.25 212.188 162.851 211.934 A 35.078 35.078 0 0 0 163.787 211.773 Q 164.682 211.606 165.303 211.431 A 9.736 9.736 0 0 0 165.39 211.406 Z M 210.303 201.828 A 33.494 33.494 0 0 0 210.898 195.313 A 38.056 38.056 0 0 0 210.884 194.283 Q 210.788 190.718 210.016 187.692 A 20.191 20.191 0 0 0 205.605 179.141 A 16.975 16.975 0 0 0 197.725 174.058 A 21.789 21.789 0 0 0 191.328 173.164 A 25.185 25.185 0 0 0 186.804 173.552 A 17.151 17.151 0 0 0 176.797 179.004 A 17.914 17.914 0 0 0 174.596 182.055 Q 172.901 185.009 172.153 188.801 A 33.668 33.668 0 0 0 171.562 195.313 A 32.439 32.439 0 0 0 171.97 200.567 A 23.988 23.988 0 0 0 173.984 207.109 A 21.313 21.313 0 0 0 174.456 208.034 A 17.555 17.555 0 0 0 180.859 214.844 A 18.056 18.056 0 0 0 185.003 216.687 A 20.823 20.823 0 0 0 191.054 217.539 A 25.18 25.18 0 0 0 195.451 217.172 A 17.287 17.287 0 0 0 205.625 211.66 Q 209.127 207.756 210.303 201.828 Z M 179.663 204.314 A 13.604 13.604 0 0 0 181.562 207.812 Q 184.843 212.109 191.211 212.109 A 15.062 15.062 0 0 0 195.184 211.615 A 10.482 10.482 0 0 0 200.879 207.832 A 13.92 13.92 0 0 0 203.046 203.61 Q 203.684 201.659 203.962 199.278 A 34.156 34.156 0 0 0 204.179 195.313 A 32.354 32.354 0 0 0 203.873 190.702 Q 203.534 188.355 202.821 186.454 A 13.351 13.351 0 0 0 200.879 182.91 A 10.667 10.667 0 0 0 194.247 178.954 A 16.354 16.354 0 0 0 191.132 178.672 A 15.432 15.432 0 0 0 187.29 179.122 A 10.328 10.328 0 0 0 181.523 182.852 Q 178.281 187.031 178.281 195.313 Q 178.281 200.635 179.663 204.314 Z M 228.75 193.867 L 228.75 195.313 A 42.874 42.874 0 0 0 228.962 199.744 Q 229.549 205.368 231.757 208.223 Q 234.454 211.707 240.07 212.068 A 20.85 20.85 0 0 0 241.406 212.109 Q 246.953 212.109 250.097 207.617 A 15.678 15.678 0 0 0 252.247 203.036 Q 252.869 200.934 253.102 198.412 A 34.546 34.546 0 0 0 253.242 195.234 Q 253.242 189.979 251.888 186.331 A 13.747 13.747 0 0 0 250.097 182.949 A 10.087 10.087 0 0 0 242.719 178.747 A 13.951 13.951 0 0 0 241.25 178.672 Q 237.038 178.672 234.323 180.168 A 8.569 8.569 0 0 0 231.757 182.305 Q 228.828 185.938 228.75 193.867 Z" id="top_labelLayer" stroke="#777777" fill="#777777" style="stroke:#777777;fill:#777777" vector-effect="non-scaling-stroke"/></g></svg>