<?xml version="1.0"?>
<!DOCTYPE svg PUBLIC "-//W3C//DTD SVG 1.1//EN" "http://www.w3.org/Graphics/SVG/1.1/DTD/svg11.dtd">
<svg width="467.52638242744837mm" height="393.257260866771mm" viewBox="0 0 467.52638242744837 393.257260866771" xmlns="http://www.w3.org/2000/svg" version="1.1">
<g id="Sketch009" transform="translate(4.583592,296.512119) scale(1,-1)">
<path id="Sketch009_w0000"  d="M -2.040454397504398e-28 2.3826961075097349e-29 L 5.760096864841898 24.327377255011246 L 13.544857586445497 22.484146258261838 L 18.700144280478995 44.257148901496905 L 22.34925086873068 43.393134371770614 L 22.00364505684017 41.93349173646994 L 26.13929919019208 40.95427526944682 L 26.48490500208259 42.41391790474749 L 30.620559135434505 41.43470143772437 L 31.830179477051303 46.54345066127674 L 27.69452534369939 47.52266712829986 L 28.040131155589904 48.98230976360053 L 23.904477022237995 49.96152623062366 L 23.55887121034748 48.50188359532298 L 19.909764622095793 49.36589812504927 L 25.065051316129292 71.13890076828433 L 17.28029059452569 72.98213176503374 L 28.80048432420949 121.63688627505623 L 36.58524504581309 119.79365527830683 L 41.74053173984659 141.5666579215419 L 45.38963832809827 140.7026433918156 L 45.04403251620776 139.2430007565149 L 49.17968664955967 138.26378428949178 L 49.525292461450185 139.72342692479248 L 53.6609465948021 138.74421045776936 L 54.870566936418896 143.85295968132172 L 50.73491280306698 144.83217614834484 L 51.0805186149575 146.2918187836455 L 46.944864481605585 147.27103525066863 L 46.59925866971507 145.81139261536796 L 42.950152081463386 146.67540714509425 L 48.10543877549688 168.44840978832931 L 40.32067805389328 170.29164078507873 L 51.84087178357708 218.9463952951012 L 59.625632505180675 217.1031642983518 L 64.78091919921418 238.87616694158686 L 68.43002578746587 238.0121524118606 L 68.08441997557534 236.55250977655993 L 72.22007410892726 235.5732933095368 L 72.56567992081777 237.03293594483748 L 76.70133405416968 236.05371947781433 L 77.91095439578649 241.1624687013667 L 73.77530026243457 242.14168516838984 L 74.12090607432509 243.6013278036905 L 69.98525194097317 244.58054427071363 L 69.63964612908266 243.12090163541296 L 65.99053954083098 243.98491616513923 L 71.14582623486447 265.7579188083743 L 63.361065513260876 267.6011498051237 L 69.12116237810277 291.92852706013497 L 101.55734101975438 284.248474708304 L 99.71411002300496 276.4637139867003 L 129.59688714797056 269.38824140180316 L 128.7328726182443 265.73913481355146 L 127.27322998294362 266.08474062544195 L 126.2940135159205 261.94908649209003 L 127.75365615122118 261.60348068019954 L 126.77443968419804 257.4678265468476 L 131.88318890775042 256.2582062052308 L 132.86240537477354 260.3938603385827 L 134.3220480100742 260.04825452669223 L 135.30126447709733 264.18390866004415 L 133.84162184179667 264.52951447193465 L 134.70563637152293 268.17862106018634 L 164.58744040139834 261.10337887916376 L 166.43067139814775 268.8881396007674 L 231.30400177654116 253.52780449323078 L 229.46077077979174 245.74304377162716 L 259.34257480966716 238.66780159060454 L 258.4785602799409 235.01869500235284 L 257.0189176446402 235.36430081424336 L 256.0397011776171 231.22864668089144 L 257.49934381291774 230.88304086900092 L 256.5201273458946 226.747386735649 L 261.628876569447 225.53776639403222 L 262.6080930364701 229.67342052738414 L 264.0677356717708 229.32781471549362 L 265.0469521387939 233.46346884884554 L 263.58730950349326 233.80907466073606 L 264.4513240332195 237.45818124898776 L 294.33312806309493 230.3829390679652 L 296.17635905984434 238.16769978956881 L 361.04968943823775 222.80736468203224 L 359.20645844148834 215.02260396042863 L 389.08826247136375 207.94736177940598 L 388.2242479416375 204.29825519115428 L 386.76460530633676 204.64386100304483 L 385.78538883931367 200.5082068696929 L 387.24503147461434 200.16260105780236 L 386.2658150075912 196.02694692445044 L 391.37456423114355 194.81732658283366 L 392.3537806981667 198.95298071618558 L 393.81342333346737 198.60737490429506 L 394.7926398004905 202.74302903764698 L 393.3329971651898 203.0886348495375 L 394.1970116949161 206.7377414377892 L 424.0797888198817 199.662268852892 L 425.9230198166311 207.44702957449562 L 458.3591984582827 199.76697722266462 L 452.5991015934408 175.43959996765338 L 444.8143408718372 177.2828309644028 L 439.6590541778037 155.5098283211677 L 436.009947589552 156.373842850894 L 436.3555534014425 157.83348548619466 L 432.2198992680906 158.81270195321778 L 431.8742934562001 157.35305931791711 L 427.7386393228482 158.33227578494024 L 426.5290189812314 153.22352656138787 L 430.6646731145833 152.24431009436475 L 430.3190673026928 150.78466745906408 L 434.4547214360447 149.80545099204096 L 434.8003272479352 151.26509362734163 L 438.44943383618687 150.40107909761534 L 433.29414714215346 128.62807645438028 L 441.0789078637571 126.78484545763085 L 429.5587141340733 78.13009094760837 L 421.7739534124696 79.97332194435778 L 416.61866671843615 58.20031930112269 L 412.96956013018445 59.06433383084898 L 413.31516594207494 60.523976466149676 L 409.1795118087231 61.5031929331728 L 408.8339059968326 60.0435502978721 L 404.69825186348066 61.02276676489522 L 403.48863152186385 55.914017541342886 L 407.6242856552158 54.934801074319765 L 407.2786798433253 53.47515843901907 L 411.41433397667714 52.49594197199595 L 411.75993978856764 53.95558460729664 L 415.40904637681933 53.09157007757035 L 410.2537596827858 31.318567434335264 L 418.03852040438943 29.475336437585852 L 406.51832667470563 -19.179418072436633 L 398.733565953102 -17.33618707568722 L 393.57827925906855 -39.10918971892229 L 389.92917267081685 -38.245175189196 L 390.27477848270735 -36.78553255389532 L 386.1391243493555 -35.8063160868722 L 385.793518537465 -37.265958722172876 L 381.65786440411307 -36.286742255149754 L 380.44824406249626 -41.39549147870211 L 384.5838981958482 -42.374707945725234 L 384.2382923839577 -43.83435058102591 L 388.37394651730955 -44.81356704804903 L 388.71955232920004 -43.353924412748356 L 392.36865891745174 -44.217938942474646 L 387.2133722234182 -65.99094158570972 L 394.99813294502184 -67.83417258245913 L 389.23803608017994 -92.16154983747037 L 356.8018574385283 -84.48149748563937 L 358.6450884352777 -76.69673676403576 L 328.76231131031216 -69.62126417913859 L 329.6263258400385 -65.9721575908869 L 331.08596847533914 -66.3177634027774 L 332.06518494236224 -62.182109269425496 L 330.60554230706157 -61.83650345753499 L 331.5847587740847 -57.700849324183075 L 326.47600955053235 -56.491228982566284 L 325.4967930835092 -60.62688311591819 L 324.03715044820854 -60.28127730402767 L 323.05793398118544 -64.41693143737957 L 324.5175766164861 -64.7625372492701 L 323.6535620867598 -68.4116438375218 L 293.7717580568844 -61.33640165649918 L 291.92852706013497 -69.12116237810277 L 227.05519668174156 -53.76082727056618 L 228.89842767849098 -45.976066548962585 L 199.01662364861556 -38.90082436793998 L 199.88063817834185 -35.2517177796883 L 201.34028081364252 -35.597323591578814 L 202.31949728066564 -31.4616694582269 L 200.85985464536498 -31.116063646336386 L 201.8390711123881 -26.980409512984476 L 196.73032188883573 -25.770789171367678 L 195.7511054218126 -29.906443304719588 L 194.29146278651194 -29.560837492829073 L 193.31224631948882 -33.696491626180986 L 194.7718889547895 -34.0420974380715 L 193.9078744250632 -37.691204026323184 L 164.0260703951878 -30.61596184530059 L 162.18283939843838 -38.400722566904186 L 97.30950902004498 -23.040387459367594 L 99.1527400167944 -15.255626737763993 L 69.27093598691899 -8.180384556741393 L 70.13495051664526 -4.5312779684897055 L 71.59459315194593 -4.8768837803802185 L 72.57380961896907 -0.7412296470283088 L 71.1141669836684 -0.39562383513779587 L 72.09338345069152 3.7400302982141174 L 66.98463422713915 4.949650639830917 L 66.00541776011603 0.813996506479004 L 64.54577512481535 1.159602318369517 L 63.56655865779223 -2.9760518149823945 L 65.0262012930929 -3.3216576268729074 L 64.16218676336662 -6.9707642151245945 L 34.279409638401006 0.10470836977259967 L 32.436178641651594 -7.680052351830999 L -2.040454397504398e-28 2.3826961075097349e-29 " stroke="#ff0000" stroke-width="0.35 px" style="stroke-width:0.35;stroke-miterlimit:4;stroke-dasharray:none;stroke-linecap:square;fill:none;fill-opacity:1;fill-rule: evenodd"/>
<title>b'Sketch009'</title>
</g>
</svg>