<?xml version="1.0"?>
<!DOCTYPE svg PUBLIC "-//W3C//DTD SVG 1.1//EN" "http://www.w3.org/Graphics/SVG/1.1/DTD/svg11.dtd">
<svg width="392.0000000000003mm" height="400.00000000000017mm" viewBox="8.000000 -100.000000 392.000000 400.000000" xmlns="http://www.w3.org/2000/svg" version="1.1">
<g id="Sketch005" transform="scale(1,-1)">
<path id="Sketch005_w0000"  d="M 8.000000000000004 -292.0 L 33.333000000000105 -292.0 L 33.333000000000105 -300.0 L 64.04200000000012 -300.0 L 64.04200000000012 -294.75 L 66.66700000000012 -294.75 L 69.29200000000012 -294.75 L 69.29200000000012 -300.0 L 100.00000000000013 -300.0 L 100.00000000000013 -292.0 L 166.66700000000014 -292.00000000000006 L 166.66700000000014 -300.00000000000006 L 197.37500000000017 -300.00000000000006 L 197.37500000000017 -294.75000000000006 L 200.00000000000017 -294.75000000000006 L 202.62500000000017 -294.75000000000006 L 202.62500000000017 -300.00000000000006 L 233.33300000000017 -300.00000000000006 L 233.33300000000017 -292.00000000000006 L 300.00000000000017 -292.00000000000006 L 300.00000000000017 -300.00000000000006 L 330.7080000000002 -300.00000000000006 L 330.7080000000002 -294.75000000000006 L 333.3330000000002 -294.75000000000006 L 335.9580000000002 -294.75000000000006 L 335.9580000000002 -300.00000000000006 L 366.66700000000014 -300.00000000000006 L 366.66700000000014 -292.00000000000006 L 392.0000000000002 -292.0000000000001 L 392.0000000000002 -266.6670000000001 L 400.0000000000002 -266.6670000000001 L 400.0000000000002 -235.95800000000008 L 394.7500000000002 -235.95800000000008 L 394.7500000000002 -233.33300000000008 L 394.7500000000002 -230.70800000000008 L 400.0000000000002 -230.70800000000008 L 400.0000000000002 -200.00000000000006 L 392.0000000000002 -200.00000000000006 L 392.0000000000003 -133.33300000000006 L 400.0000000000003 -133.33300000000006 L 400.0000000000003 -102.62500000000003 L 394.7500000000003 -102.62500000000003 L 394.7500000000003 -100.00000000000003 L 394.7500000000003 -97.37500000000003 L 400.0000000000003 -97.37500000000003 L 400.0000000000003 -66.66700000000003 L 392.0000000000003 -66.66700000000003 L 392.0000000000003 -5.684341886080802e-14 L 400.0000000000003 -5.684341886080802e-14 L 400.0000000000003 30.70799999999997 L 394.7500000000003 30.70799999999997 L 394.7500000000003 33.33299999999997 L 394.7500000000003 35.95799999999997 L 400.0000000000003 35.95799999999997 L 400.0000000000003 66.66699999999992 L 392.0000000000003 66.66699999999992 L 392.00000000000034 92.0 L 366.66700000000026 92.00000000000006 L 366.66700000000026 100.00000000000006 L 335.9580000000003 100.00000000000006 L 335.9580000000003 94.75000000000006 L 333.3330000000003 94.75000000000006 L 330.7080000000003 94.75000000000006 L 330.7080000000003 100.00000000000006 L 300.0000000000003 100.00000000000006 L 300.0000000000003 92.00000000000006 L 233.33300000000025 92.00000000000006 L 233.33300000000025 100.00000000000006 L 202.62500000000026 100.00000000000006 L 202.62500000000026 94.75000000000006 L 200.00000000000026 94.75000000000006 L 197.37500000000026 94.75000000000006 L 197.37500000000026 100.00000000000006 L 166.66700000000023 100.00000000000006 L 166.66700000000023 92.00000000000006 L 100.00000000000021 92.00000000000011 L 100.00000000000021 100.00000000000011 L 69.2920000000002 100.00000000000011 L 69.2920000000002 94.75000000000011 L 66.6670000000002 94.75000000000011 L 64.0420000000002 94.75000000000011 L 64.0420000000002 100.00000000000011 L 33.33300000000019 100.00000000000011 L 33.33300000000019 92.00000000000011 L 8.000000000000089 92.00000000000011 L 8.000000000000004 -292.0 " stroke="#ff0000" stroke-width="0.35 px" style="stroke-width:0.35;stroke-miterlimit:4;stroke-dasharray:none;stroke-linecap:square;fill:none;fill-opacity:1;fill-rule: evenodd"/>
<title>b'Sketch005'</title>
</g>
</svg>