<?xml version="1.0"?>
<!DOCTYPE svg PUBLIC "-//W3C//DTD SVG 1.1//EN" "http://www.w3.org/Graphics/SVG/1.1/DTD/svg11.dtd">
<svg width="400.035591mm" height="300.0mm" viewBox="0.000000 -0.000000 400.035591 300.000000" xmlns="http://www.w3.org/2000/svg" version="1.1">
<g id="Sketch" transform="scale(1,-1)">
<path id="Sketch_w0000"  d="M 59.7 -49.7 L 340.3 -49.7 L 340.3 -300.0 L 400.035591 -300.0 L 400.0 -275.0 L 392.0 -275.0 L 392.0 -252.625 L 388.25 -252.625 L 388.25 -254.125 L 384.0 -254.125 L 384.0 -252.625 L 379.75 -252.625 L 379.75 -247.375 L 384.0 -247.375 L 384.0 -245.875 L 388.25 -245.875 L 388.25 -247.375 L 392.0 -247.375 L 392.0 -225.0 L 400.0 -225.0 L 400.0 -175.0 L 392.0 -175.0 L 392.0 -152.625 L 388.25 -152.625 L 388.25 -154.125 L 384.0 -154.125 L 384.0 -152.625 L 379.75 -152.625 L 379.75 -147.375 L 384.0 -147.375 L 384.0 -145.875 L 388.25 -145.875 L 388.25 -147.375 L 392.0 -147.375 L 392.0 -125.0 L 400.0 -125.0 L 400.0 -75.0 L 392.0 -75.0 L 392.0 -52.625 L 388.25 -52.625 L 388.25 -54.125 L 384.0 -54.125 L 384.0 -52.625 L 379.75 -52.625 L 379.75 -47.375 L 384.0 -47.375 L 384.0 -45.875 L 388.25 -45.875 L 388.25 -47.375 L 392.0 -47.375 L 392.0 -25.0 L 400.0 -25.0 L 400.0 0.0 L 366.667 0.0 L 366.667 -8.0 L 335.958 -8.0 L 335.958 -11.75 L 337.458 -11.75 L 337.458 -16.0 L 335.958 -16.0 L 335.958 -20.25 L 330.708 -20.25 L 330.708 -16.0 L 329.208 -16.0 L 329.208 -11.75 L 330.708 -11.75 L 330.708 -8.0 L 300.0 -8.0 L 300.0 0.0 L 233.333 0.0 L 233.333 -8.0 L 202.625 -8.0 L 202.625 -11.75 L 204.125 -11.75 L 204.125 -16.0 L 202.625 -16.0 L 202.625 -20.25 L 197.375 -20.25 L 197.375 -16.0 L 195.875 -16.0 L 195.875 -11.75 L 197.375 -11.75 L 197.375 -8.0 L 166.667 -8.0 L 166.67000000000002 0.0 L 100.0 0.0 L 100.0 -8.0 L 69.292 -8.0 L 69.292 -11.75 L 70.792 -11.75 L 70.792 -16.0 L 69.292 -16.0 L 69.292 -20.25 L 64.042 -20.25 L 64.042 -16.0 L 62.542 -16.0 L 62.542 -11.75 L 64.042 -11.75 L 64.043 -8.0 L 33.333 -8.0 L 33.33 0.0 L 0.0 0.0 L 0.0 -25.0 L 8.0 -25.0 L 8.0 -47.375 L 11.75 -47.375 L 11.75 -45.875 L 16.0 -45.875 L 16.0 -47.375 L 20.25 -47.375 L 20.25 -52.625 L 16.0 -52.625 L 16.0 -54.125 L 11.75 -54.125 L 11.75 -52.625 L 8.0 -52.625 L 8.0 -75.0 L 0.0 -75.0 L 0.0 -125.0 L 8.0 -125.0 L 8.0 -147.375 L 11.75 -147.375 L 11.75 -145.875 L 16.0 -145.875 L 16.0 -147.375 L 20.25 -147.375 L 20.25 -152.625 L 16.0 -152.625 L 16.0 -154.125 L 11.75 -154.125 L 11.75 -152.625 L 8.0 -152.625 L 8.0 -175.0 L 0.0 -175.0 L 0.0 -225.0 L 8.0 -225.0 L 8.0 -247.375 L 11.75 -247.375 L 11.75 -245.875 L 16.0 -245.875 L 16.0 -247.375 L 20.25 -247.375 L 20.25 -252.625 L 16.0 -252.625 L 16.0 -254.125 L 11.75 -254.125 L 11.75 -252.625 L 8.0 -252.625 L 8.0 -275.0 L 0.0 -275.0 L 0.035591000000021196 -300.0 L 59.7 -300.0 L 59.7 -49.7 " stroke="#ff0000" stroke-width="0.35 px" style="stroke-width:0.35;stroke-miterlimit:4;stroke-dasharray:none;stroke-linecap:square;fill:none;fill-opacity:1;fill-rule: evenodd"/>
<path id="Sketch_w0001"  d="M 60.0 -300.0 L 60.0 -50.0 L 199.85 -50.0 L 199.85 -300.0 L 60.0 -300.0 " stroke="#ff0000" stroke-width="0.35 px" style="stroke-width:0.35;stroke-miterlimit:4;stroke-dasharray:none;stroke-linecap:square;fill:none;fill-opacity:1;fill-rule: evenodd"/>
<path id="Sketch_w0002"  d="M 200.14999999999998 -50.0 L 340.0 -49.99999999999618 L 340.0 -300.0 L 200.14999999999998 -300.0 L 200.14999999999998 -50.0 " stroke="#ff0000" stroke-width="0.35 px" style="stroke-width:0.35;stroke-miterlimit:4;stroke-dasharray:none;stroke-linecap:square;fill:none;fill-opacity:1;fill-rule: evenodd"/>
<path id="Sketch_w0003"  d="M 46.984711 -78.997818 M 46.984711 -78.997818 L 46.92187732225726 -78.50043822567028 L 46.737324360087726 -78.03431065179656 L 46.44264825484282 -77.62872378814262 L 46.056364589957994 -77.30916214899597 L 45.60274498874989 -77.09570496740969 L 45.11029203905863 -77.00176454314345 L 44.60994837082855 -77.03324349854262 L 44.133152416869855 -77.18816389506796 L 43.70986302050262 -77.45679151444841 L 43.366677011250104 -77.82224749541506 L 43.125158028223495 -78.26156889463064 L 43.00048159737104 -78.74715153287138 L 43.00048159737104 -79.2484844671286 L 43.125158028223495 -79.73406710536935 L 43.366677011250104 -80.17338850458493 L 43.70986302050262 -80.53884448555158 L 44.133152416869855 -80.80747210493203 L 44.60994837082855 -80.96239250145737 L 45.11029203905862 -80.99387145685654 L 45.60274498874989 -80.8999310325903 L 46.05636458995799 -80.68647385100402 L 46.44264825484282 -80.36691221185737 L 46.737324360087726 -79.96132534820343 L 46.92187732225726 -79.49519777432971 L 46.984711 -78.997818 " stroke="#ff0000" stroke-width="0.35 px" style="stroke-width:0.35;stroke-miterlimit:4;stroke-dasharray:none;stroke-linecap:square;fill:none;fill-opacity:1;fill-rule: evenodd"/>
<path id="Sketch_w0004"  d="M 76.912659 -78.888985 M 76.912659 -78.888985 L 76.84982532225726 -78.39160522567029 L 76.66527236008773 -77.92547765179657 L 76.37059625484282 -77.51989078814263 L 75.984312589958 -77.20032914899598 L 75.5306929887499 -76.9868719674097 L 75.03824003905864 -76.89293154314346 L 74.53789637082855 -76.92441049854263 L 74.06110041686986 -77.07933089506797 L 73.63781102050262 -77.34795851444842 L 73.2946250112501 -77.71341449541507 L 73.0531060282235 -78.15273589463065 L 72.92842959737105 -78.6383185328714 L 72.92842959737105 -79.13965146712862 L 73.0531060282235 -79.62523410536936 L 73.2946250112501 -80.06455550458494 L 73.63781102050262 -80.43001148555159 L 74.06110041686986 -80.69863910493204 L 74.53789637082856 -80.85355950145738 L 75.03824003905864 -80.88503845685655 L 75.5306929887499 -80.79109803259031 L 75.984312589958 -80.57764085100403 L 76.37059625484282 -80.25807921185738 L 76.66527236008773 -79.85249234820344 L 76.84982532225726 -79.38636477432972 L 76.912659 -78.888985 " stroke="#ff0000" stroke-width="0.35 px" style="stroke-width:0.35;stroke-miterlimit:4;stroke-dasharray:none;stroke-linecap:square;fill:none;fill-opacity:1;fill-rule: evenodd"/>
<path id="Sketch_w0005"  d="M 46.875881 -100.763603 M 46.875881 -100.763603 L 46.81304732225726 -100.26622322567029 L 46.62849436008773 -99.80009565179657 L 46.333818254842825 -99.39450878814263 L 45.947534589957996 -99.07494714899597 L 45.49391498874989 -98.8614899674097 L 45.00146203905863 -98.76754954314346 L 44.50111837082855 -98.79902849854263 L 44.02432241686986 -98.95394889506797 L 43.60103302050262 -99.22257651444842 L 43.25784701125011 -99.58803249541506 L 43.0163280282235 -100.02735389463065 L 42.891651597371045 -100.5129365328714 L 42.891651597371045 -101.01426946712861 L 43.0163280282235 -101.49985210536936 L 43.25784701125011 -101.93917350458494 L 43.60103302050262 -102.30462948555159 L 44.02432241686986 -102.57325710493204 L 44.50111837082855 -102.72817750145738 L 45.00146203905862 -102.75965645685655 L 45.49391498874989 -102.66571603259031 L 45.94753458995799 -102.45225885100403 L 46.333818254842825 -102.13269721185738 L 46.62849436008773 -101.72711034820344 L 46.81304732225726 -101.26098277432972 L 46.875881 -100.763603 " stroke="#ff0000" stroke-width="0.35 px" style="stroke-width:0.35;stroke-miterlimit:4;stroke-dasharray:none;stroke-linecap:square;fill:none;fill-opacity:1;fill-rule: evenodd"/>
<path id="Sketch_w0006"  d="M 76.912659 -101.090088 M 76.912659 -101.090088 L 76.84982532225726 -100.59270822567028 L 76.66527236008773 -100.12658065179656 L 76.37059625484282 -99.72099378814262 L 75.984312589958 -99.40143214899597 L 75.5306929887499 -99.18797496740969 L 75.03824003905864 -99.09403454314345 L 74.53789637082855 -99.12551349854262 L 74.06110041686986 -99.28043389506796 L 73.63781102050262 -99.54906151444841 L 73.2946250112501 -99.91451749541505 L 73.0531060282235 -100.35383889463064 L 72.92842959737105 -100.83942153287138 L 72.92842959737105 -101.3407544671286 L 73.0531060282235 -101.82633710536935 L 73.2946250112501 -102.26565850458493 L 73.63781102050262 -102.63111448555158 L 74.06110041686986 -102.89974210493203 L 74.53789637082856 -103.05466250145737 L 75.03824003905864 -103.08614145685654 L 75.5306929887499 -102.9922010325903 L 75.984312589958 -102.77874385100402 L 76.37059625484282 -102.45918221185737 L 76.66527236008773 -102.05359534820343 L 76.84982532225726 -101.58746777432971 L 76.912659 -101.090088 " stroke="#ff0000" stroke-width="0.35 px" style="stroke-width:0.35;stroke-miterlimit:4;stroke-dasharray:none;stroke-linecap:square;fill:none;fill-opacity:1;fill-rule: evenodd"/>
<path id="Sketch_w0007"  d="M 171.067886 -36.82222 M 171.067886 -36.82222 L 171.00505232225726 -36.32484022567029 L 170.82049936008772 -35.85871265179657 L 170.5258232548428 -35.45312578814262 L 170.139539589958 -35.13356414899597 L 169.68591998874987 -34.920106967409694 L 169.19346703905862 -34.82616654314346 L 168.69312337082854 -34.857645498542624 L 168.21632741686983 -35.012565895067965 L 167.79303802050262 -35.281193514448425 L 167.4498520112501 -35.646649495415055 L 167.20833302822348 -36.08597089463065 L 167.08365659737103 -36.57155353287139 L 167.08365659737103 -37.07288646712861 L 167.20833302822348 -37.558469105369355 L 167.4498520112501 -37.99779050458495 L 167.79303802050262 -38.36324648555158 L 168.21632741686983 -38.63187410493204 L 168.69312337082854 -38.78679450145738 L 169.19346703905862 -38.818273456856545 L 169.68591998874987 -38.72433303259031 L 170.139539589958 -38.51087585100403 L 170.5258232548428 -38.19131421185738 L 170.82049936008772 -37.78572734820343 L 171.00505232225726 -37.31959977432971 L 171.067886 -36.82222 " stroke="#ff0000" stroke-width="0.35 px" style="stroke-width:0.35;stroke-miterlimit:4;stroke-dasharray:none;stroke-linecap:square;fill:none;fill-opacity:1;fill-rule: evenodd"/>
<path id="Sketch_w0008"  d="M 234.079819 -36.604557 M 234.079819 -36.604557 L 234.01698532225726 -36.10717722567029 L 233.83243236008772 -35.64104965179657 L 233.5377562548428 -35.23546278814262 L 233.151472589958 -34.91590114899597 L 232.69785298874987 -34.70244396740969 L 232.20540003905862 -34.608503543143456 L 231.70505637082854 -34.63998249854262 L 231.22826041686983 -34.79490289506796 L 230.80497102050262 -35.06353051444842 L 230.4617850112501 -35.42898649541505 L 230.22026602822348 -35.86830789463065 L 230.09558959737103 -36.35389053287139 L 230.09558959737103 -36.85522346712861 L 230.22026602822348 -37.34080610536935 L 230.4617850112501 -37.78012750458495 L 230.80497102050262 -38.145583485551576 L 231.22826041686983 -38.414211104932036 L 231.70505637082854 -38.56913150145738 L 232.20540003905862 -38.60061045685654 L 232.69785298874987 -38.50667003259031 L 233.151472589958 -38.29321285100403 L 233.5377562548428 -37.97365121185738 L 233.83243236008772 -37.56806434820343 L 234.01698532225726 -37.10193677432971 L 234.079819 -36.604557 " stroke="#ff0000" stroke-width="0.35 px" style="stroke-width:0.35;stroke-miterlimit:4;stroke-dasharray:none;stroke-linecap:square;fill:none;fill-opacity:1;fill-rule: evenodd"/>
<path id="Sketch_w0009"  d="M 326.992523 -78.897697 M 326.992523 -78.897697 L 326.9296893222573 -78.40031722567028 L 326.7451363600877 -77.93418965179656 L 326.4504602548428 -77.52860278814262 L 326.064176589958 -77.20904114899596 L 325.6105569887499 -76.99558396740969 L 325.1181040390586 -76.90164354314345 L 324.61776037082853 -76.93312249854262 L 324.14096441686985 -77.08804289506796 L 323.7176750205026 -77.35667051444841 L 323.3744890112501 -77.72212649541505 L 323.1329700282235 -78.16144789463064 L 323.00829359737105 -78.64703053287138 L 323.00829359737105 -79.1483634671286 L 323.1329700282235 -79.63394610536935 L 323.3744890112501 -80.07326750458493 L 323.7176750205026 -80.43872348555158 L 324.14096441686985 -80.70735110493203 L 324.61776037082853 -80.86227150145737 L 325.1181040390586 -80.89375045685654 L 325.6105569887499 -80.7998100325903 L 326.064176589958 -80.58635285100402 L 326.4504602548428 -80.26679121185737 L 326.7451363600877 -79.86120434820343 L 326.9296893222573 -79.39507677432971 L 326.992523 -78.897697 " stroke="#ff0000" stroke-width="0.35 px" style="stroke-width:0.35;stroke-miterlimit:4;stroke-dasharray:none;stroke-linecap:square;fill:none;fill-opacity:1;fill-rule: evenodd"/>
<path id="Sketch_w0010"  d="M 356.930664 -79.075905 M 356.930664 -79.075905 L 356.86783032225725 -78.57852522567029 L 356.6832773600877 -78.11239765179657 L 356.3886012548428 -77.70681078814263 L 356.00231758995795 -77.38724914899598 L 355.5486979887499 -77.1737919674097 L 355.0562450390586 -77.07985154314346 L 354.5559013708285 -77.11133049854263 L 354.0791054168698 -77.26625089506797 L 353.6558160205026 -77.53487851444842 L 353.31263001125006 -77.90033449541507 L 353.07111102822347 -78.33965589463065 L 352.946434597371 -78.8252385328714 L 352.946434597371 -79.32657146712862 L 353.07111102822347 -79.81215410536936 L 353.31263001125006 -80.25147550458495 L 353.6558160205026 -80.61693148555159 L 354.0791054168698 -80.88555910493204 L 354.5559013708285 -81.04047950145738 L 355.0562450390586 -81.07195845685655 L 355.5486979887499 -80.97801803259031 L 356.00231758995795 -80.76456085100403 L 356.3886012548428 -80.44499921185738 L 356.6832773600877 -80.03941234820344 L 356.86783032225725 -79.57328477432972 L 356.930664 -79.075905 " stroke="#ff0000" stroke-width="0.35 px" style="stroke-width:0.35;stroke-miterlimit:4;stroke-dasharray:none;stroke-linecap:square;fill:none;fill-opacity:1;fill-rule: evenodd"/>
<path id="Sketch_w0011"  d="M 327.069946 -101.185951 M 327.069946 -101.185951 L 327.0071123222573 -100.68857122567029 L 326.8225593600877 -100.22244365179657 L 326.52788325484283 -99.81685678814263 L 326.141599589958 -99.49729514899597 L 325.68797998874993 -99.2838379674097 L 325.1955270390586 -99.18989754314346 L 324.69518337082854 -99.22137649854263 L 324.21838741686986 -99.37629689506797 L 323.7950980205026 -99.64492451444842 L 323.4519120112501 -100.01038049541506 L 323.2103930282235 -100.44970189463065 L 323.08571659737106 -100.93528453287139 L 323.08571659737106 -101.43661746712861 L 323.2103930282235 -101.92220010536936 L 323.4519120112501 -102.36152150458494 L 323.7950980205026 -102.72697748555159 L 324.21838741686986 -102.99560510493204 L 324.69518337082854 -103.15052550145738 L 325.1955270390586 -103.18200445685655 L 325.68797998874993 -103.08806403259031 L 326.141599589958 -102.87460685100403 L 326.52788325484283 -102.55504521185738 L 326.8225593600877 -102.14945834820344 L 327.0071123222573 -101.68333077432972 L 327.069946 -101.185951 " stroke="#ff0000" stroke-width="0.35 px" style="stroke-width:0.35;stroke-miterlimit:4;stroke-dasharray:none;stroke-linecap:square;fill:none;fill-opacity:1;fill-rule: evenodd"/>
<path id="Sketch_w0012"  d="M 357.019775 -100.994896 M 357.019775 -100.994896 L 356.95694132225725 -100.49751622567028 L 356.7723883600877 -100.03138865179656 L 356.4777122548428 -99.62580178814262 L 356.09142858995796 -99.30624014899597 L 355.6378089887499 -99.09278296740969 L 355.1453560390586 -98.99884254314345 L 354.6450123708285 -99.03032149854262 L 354.1682164168698 -99.18524189506796 L 353.7449270205026 -99.45386951444841 L 353.40174101125007 -99.81932549541506 L 353.1602220282235 -100.25864689463064 L 353.035545597371 -100.74422953287139 L 353.035545597371 -101.24556246712861 L 353.1602220282235 -101.73114510536935 L 353.40174101125007 -102.17046650458494 L 353.7449270205026 -102.53592248555158 L 354.1682164168698 -102.80455010493203 L 354.6450123708285 -102.95947050145737 L 355.1453560390586 -102.99094945685654 L 355.6378089887499 -102.8970090325903 L 356.09142858995796 -102.68355185100403 L 356.4777122548428 -102.36399021185737 L 356.7723883600877 -101.95840334820343 L 356.95694132225725 -101.49227577432971 L 357.019775 -100.994896 " stroke="#ff0000" stroke-width="0.35 px" style="stroke-width:0.35;stroke-miterlimit:4;stroke-dasharray:none;stroke-linecap:square;fill:none;fill-opacity:1;fill-rule: evenodd"/>
<path id="Sketch_w0013"  d="M 47.093212 -215.049789 M 47.093212 -215.049789 L 47.03037832225726 -214.5524092256703 L 46.84582536008773 -214.08628165179658 L 46.55114925484283 -213.68069478814263 L 46.164865589958 -213.36113314899598 L 45.711245988749894 -213.1476759674097 L 45.21879303905863 -213.05373554314346 L 44.71844937082855 -213.08521449854263 L 44.24165341686986 -213.24013489506797 L 43.81836402050262 -213.50876251444842 L 43.47517801125011 -213.87421849541505 L 43.2336590282235 -214.31353989463065 L 43.108982597371046 -214.7991225328714 L 43.108982597371046 -215.30045546712861 L 43.2336590282235 -215.78603810536936 L 43.47517801125011 -216.22535950458496 L 43.81836402050262 -216.5908154855516 L 44.24165341686986 -216.85944310493204 L 44.71844937082855 -217.01436350145738 L 45.218793039058625 -217.04584245685655 L 45.711245988749894 -216.9519020325903 L 46.16486558995799 -216.73844485100403 L 46.55114925484283 -216.41888321185738 L 46.84582536008773 -216.01329634820343 L 47.03037832225726 -215.54716877432972 L 47.093212 -215.049789 " stroke="#ff0000" stroke-width="0.35 px" style="stroke-width:0.35;stroke-miterlimit:4;stroke-dasharray:none;stroke-linecap:square;fill:none;fill-opacity:1;fill-rule: evenodd"/>
<path id="Sketch_w0014"  d="M 76.966286 -214.887436 M 76.966286 -214.887436 L 76.90345232225727 -214.3900562256703 L 76.71889936008772 -213.9239286517966 L 76.42422325484281 -213.51834178814264 L 76.03793958995799 -213.19878014899598 L 75.5843199887499 -212.9853229674097 L 75.09186703905863 -212.89138254314346 L 74.59152337082855 -212.92286149854263 L 74.11472741686985 -213.07778189506797 L 73.69143802050262 -213.34640951444842 L 73.3482520112501 -213.71186549541505 L 73.10673302822349 -214.15118689463065 L 72.98205659737104 -214.6367695328714 L 72.98205659737104 -215.13810246712862 L 73.10673302822349 -215.62368510536936 L 73.3482520112501 -216.06300650458496 L 73.69143802050262 -216.4284624855516 L 74.11472741686985 -216.69709010493204 L 74.59152337082855 -216.85201050145739 L 75.09186703905863 -216.88348945685655 L 75.5843199887499 -216.78954903259032 L 76.03793958995799 -216.57609185100404 L 76.42422325484281 -216.25653021185738 L 76.71889936008772 -215.85094334820343 L 76.90345232225725 -215.38481577432972 L 76.966286 -214.887436 " stroke="#ff0000" stroke-width="0.35 px" style="stroke-width:0.35;stroke-miterlimit:4;stroke-dasharray:none;stroke-linecap:square;fill:none;fill-opacity:1;fill-rule: evenodd"/>
<path id="Sketch_w0015"  d="M 47.093212 -237.129898 M 47.093212 -237.129898 L 47.03037832225726 -236.63251822567028 L 46.84582536008773 -236.16639065179658 L 46.55114925484283 -235.76080378814262 L 46.164865589958 -235.44124214899597 L 45.711245988749894 -235.2277849674097 L 45.21879303905863 -235.13384454314345 L 44.71844937082855 -235.16532349854262 L 44.24165341686986 -235.32024389506796 L 43.81836402050262 -235.5888715144484 L 43.47517801125011 -235.95432749541504 L 43.2336590282235 -236.39364889463064 L 43.108982597371046 -236.8792315328714 L 43.108982597371046 -237.3805644671286 L 43.2336590282235 -237.86614710536935 L 43.47517801125011 -238.30546850458495 L 43.81836402050262 -238.67092448555158 L 44.24165341686986 -238.93955210493203 L 44.71844937082855 -239.09447250145737 L 45.218793039058625 -239.12595145685654 L 45.711245988749894 -239.0320110325903 L 46.16486558995799 -238.81855385100403 L 46.55114925484283 -238.49899221185737 L 46.84582536008773 -238.09340534820342 L 47.03037832225726 -237.6272777743297 L 47.093212 -237.129898 " stroke="#ff0000" stroke-width="0.35 px" style="stroke-width:0.35;stroke-miterlimit:4;stroke-dasharray:none;stroke-linecap:square;fill:none;fill-opacity:1;fill-rule: evenodd"/>
<path id="Sketch_w0016"  d="M 76.803932 -236.805191 M 76.803932 -236.805191 L 76.74109832225727 -236.3078112256703 L 76.55654536008772 -235.8416836517966 L 76.26186925484282 -235.43609678814263 L 75.87558558995799 -235.11653514899598 L 75.4219659887499 -234.9030779674097 L 74.92951303905863 -234.80913754314346 L 74.42916937082856 -234.84061649854263 L 73.95237341686986 -234.99553689506797 L 73.52908402050262 -235.26416451444842 L 73.1858980112501 -235.62962049541505 L 72.9443790282235 -236.06894189463065 L 72.81970259737105 -236.5545245328714 L 72.81970259737105 -237.05585746712862 L 72.9443790282235 -237.54144010536936 L 73.1858980112501 -237.98076150458496 L 73.52908402050262 -238.3462174855516 L 73.95237341686986 -238.61484510493204 L 74.42916937082856 -238.76976550145739 L 74.92951303905863 -238.80124445685655 L 75.4219659887499 -238.70730403259032 L 75.87558558995799 -238.49384685100404 L 76.26186925484282 -238.17428521185738 L 76.55654536008772 -237.76869834820343 L 76.74109832225726 -237.30257077432972 L 76.803932 -236.805191 " stroke="#ff0000" stroke-width="0.35 px" style="stroke-width:0.35;stroke-miterlimit:4;stroke-dasharray:none;stroke-linecap:square;fill:none;fill-opacity:1;fill-rule: evenodd"/>
<path id="Sketch_w0017"  d="M 326.97644 -215.005142 M 326.97644 -215.005142 L 326.9136063222573 -214.5077622256703 L 326.72905336008773 -214.04163465179658 L 326.43437725484284 -213.63604778814263 L 326.048093589958 -213.31648614899598 L 325.59447398874994 -213.1030289674097 L 325.1020210390586 -213.00908854314346 L 324.60167737082855 -213.04056749854263 L 324.12488141686987 -213.19548789506797 L 323.70159202050263 -213.46411551444842 L 323.3584060112501 -213.82957149541505 L 323.1168870282235 -214.26889289463065 L 322.99221059737107 -214.7544755328714 L 322.99221059737107 -215.25580846712862 L 323.1168870282235 -215.74139110536936 L 323.3584060112501 -216.18071250458496 L 323.70159202050263 -216.5461684855516 L 324.12488141686987 -216.81479610493204 L 324.60167737082855 -216.96971650145738 L 325.1020210390586 -217.00119545685655 L 325.59447398874994 -216.9072550325903 L 326.048093589958 -216.69379785100404 L 326.43437725484284 -216.37423621185738 L 326.72905336008773 -215.96864934820343 L 326.9136063222573 -215.50252177432972 L 326.97644 -215.005142 " stroke="#ff0000" stroke-width="0.35 px" style="stroke-width:0.35;stroke-miterlimit:4;stroke-dasharray:none;stroke-linecap:square;fill:none;fill-opacity:1;fill-rule: evenodd"/>
<path id="Sketch_w0018"  d="M 327.084503 -237.156174 M 327.084503 -237.156174 L 327.02166932225725 -236.65879422567028 L 326.8371163600877 -236.19266665179657 L 326.5424402548428 -235.78707978814262 L 326.15615658995796 -235.46751814899596 L 325.7025369887499 -235.25406096740969 L 325.2100840390586 -235.16012054314345 L 324.7097403708285 -235.19159949854262 L 324.2329444168698 -235.34651989506796 L 323.8096550205026 -235.6151475144484 L 323.46646901125007 -235.98060349541504 L 323.2249500282235 -236.41992489463064 L 323.10027359737103 -236.90550753287138 L 323.10027359737103 -237.4068404671286 L 323.2249500282235 -237.89242310536935 L 323.46646901125007 -238.33174450458495 L 323.8096550205026 -238.69720048555158 L 324.2329444168698 -238.96582810493203 L 324.7097403708285 -239.12074850145737 L 325.2100840390586 -239.15222745685654 L 325.7025369887499 -239.0582870325903 L 326.15615658995796 -238.84482985100402 L 326.5424402548428 -238.52526821185737 L 326.8371163600877 -238.11968134820341 L 327.02166932225725 -237.6535537743297 L 327.084503 -237.156174 " stroke="#ff0000" stroke-width="0.35 px" style="stroke-width:0.35;stroke-miterlimit:4;stroke-dasharray:none;stroke-linecap:square;fill:none;fill-opacity:1;fill-rule: evenodd"/>
<path id="Sketch_w0019"  d="M 356.958984 -214.859238 M 356.958984 -214.859238 L 356.89615032225726 -214.3618582256703 L 356.7115973600877 -213.89573065179658 L 356.4169212548428 -213.49014378814263 L 356.03063758995796 -213.17058214899598 L 355.5770179887499 -212.9571249674097 L 355.0845650390586 -212.86318454314346 L 354.5842213708285 -212.89466349854263 L 354.10742541686983 -213.04958389506797 L 353.6841360205026 -213.31821151444842 L 353.3409500112501 -213.68366749541505 L 353.0994310282235 -214.12298889463065 L 352.97475459737103 -214.6085715328714 L 352.97475459737103 -215.10990446712862 L 353.0994310282235 -215.59548710536936 L 353.3409500112501 -216.03480850458496 L 353.6841360205026 -216.4002644855516 L 354.10742541686983 -216.66889210493204 L 354.5842213708285 -216.82381250145738 L 355.0845650390586 -216.85529145685655 L 355.5770179887499 -216.7613510325903 L 356.03063758995796 -216.54789385100403 L 356.4169212548428 -216.22833221185738 L 356.7115973600877 -215.82274534820343 L 356.89615032225726 -215.35661777432972 L 356.958984 -214.859238 " stroke="#ff0000" stroke-width="0.35 px" style="stroke-width:0.35;stroke-miterlimit:4;stroke-dasharray:none;stroke-linecap:square;fill:none;fill-opacity:1;fill-rule: evenodd"/>
<path id="Sketch_w0020"  d="M 357.105225 -236.936218 M 357.105225 -236.936218 L 357.0423913222573 -236.43883822567028 L 356.8578383600877 -235.97271065179658 L 356.56316225484284 -235.56712378814262 L 356.176878589958 -235.24756214899597 L 355.72325898874993 -235.0341049674097 L 355.2308060390586 -234.94016454314345 L 354.73046237082855 -234.97164349854262 L 354.25366641686986 -235.12656389506796 L 353.8303770205026 -235.3951915144484 L 353.4871910112501 -235.76064749541504 L 353.2456720282235 -236.19996889463064 L 353.12099559737106 -236.6855515328714 L 353.12099559737106 -237.1868844671286 L 353.2456720282235 -237.67246710536935 L 353.4871910112501 -238.11178850458495 L 353.8303770205026 -238.47724448555158 L 354.25366641686986 -238.74587210493203 L 354.73046237082855 -238.90079250145737 L 355.2308060390586 -238.93227145685654 L 355.72325898874993 -238.8383310325903 L 356.176878589958 -238.62487385100403 L 356.56316225484284 -238.30531221185737 L 356.8578383600877 -237.89972534820342 L 357.0423913222573 -237.4335977743297 L 357.105225 -236.936218 " stroke="#ff0000" stroke-width="0.35 px" style="stroke-width:0.35;stroke-miterlimit:4;stroke-dasharray:none;stroke-linecap:square;fill:none;fill-opacity:1;fill-rule: evenodd"/>
<path id="Sketch_w0021"  d="M 181.886963 -168.756729 M 181.886963 -168.756729 L 181.82412932225728 -168.2593492256703 L 181.63957636008774 -167.79322165179659 L 181.34490025484283 -167.38763478814263 L 180.958616589958 -167.06807314899598 L 180.5049969887499 -166.8546159674097 L 180.01254403905864 -166.76067554314346 L 179.51220037082857 -166.79215449854263 L 179.03540441686985 -166.94707489506797 L 178.61211502050264 -167.21570251444842 L 178.26892901125012 -167.58115849541505 L 178.0274100282235 -168.02047989463065 L 177.90273359737105 -168.5060625328714 L 177.90273359737105 -169.00739546712862 L 178.0274100282235 -169.49297810536936 L 178.26892901125012 -169.93229950458496 L 178.61211502050264 -170.2977554855516 L 179.03540441686985 -170.56638310493204 L 179.51220037082857 -170.72130350145738 L 180.01254403905864 -170.75278245685655 L 180.5049969887499 -170.65884203259031 L 180.958616589958 -170.44538485100404 L 181.34490025484283 -170.12582321185738 L 181.63957636008774 -169.72023634820343 L 181.82412932225728 -169.25410877432972 L 181.886963 -168.756729 " stroke="#ff0000" stroke-width="0.35 px" style="stroke-width:0.35;stroke-miterlimit:4;stroke-dasharray:none;stroke-linecap:square;fill:none;fill-opacity:1;fill-rule: evenodd"/>
<title>b'Front_outsideCutpath'</title>
</g>
</svg>