<?xml version="1.0"?>
<!DOCTYPE svg PUBLIC "-//W3C//DTD SVG 1.1//EN" "http://www.w3.org/Graphics/SVG/1.1/DTD/svg11.dtd">
<svg width="300.00000000000017mm" height="400.0000000000001mm" viewBox="0.000000 -0.000000 300.000000 400.000000" xmlns="http://www.w3.org/2000/svg" version="1.1">
<g id="Sketch006" transform="scale(1,-1)">
<path id="Sketch006_w0000"  d="M 3.552713678800501e-15 -8.0 L 25.000000000000004 -7.999999999999989 L 25.0 1.1102230246251565e-14 L 47.375 2.1038726316646716e-14 L 47.375 -5.249999999999979 L 50.0 -5.249999999999978 L 52.625 -5.249999999999977 L 52.625 2.3370194668359545e-14 L 75.0 3.3306690738754696e-14 L 75.0 -7.999999999999966 L 125.0 -7.999999999999945 L 125.0 5.551115123125783e-14 L 147.375 6.544764730165298e-14 L 147.375 -5.249999999999934 L 150.0 -5.249999999999933 L 152.625 -5.2499999999999325 L 152.625 6.777911565336581e-14 L 175.0 7.771561172376096e-14 L 175.0 -7.999999999999922 L 225.0 -7.9999999999999005 L 225.0 9.992007221626409e-14 L 247.375 1.0985656828665924e-13 L 247.375 -5.24999999999989 L 250.0 -5.249999999999889 L 252.625 -5.249999999999888 L 252.625 1.1218803663837207e-13 L 275.0 1.2212453270876722e-13 L 275.0 -7.999999999999877 L 300.0 -7.999999999999867 L 300.0 -33.33299999999986 L 292.0 -33.33299999999987 L 292.00000000000006 -64.04199999999987 L 288.25000000000006 -64.04199999999987 L 288.25 -62.541999999999874 L 284.0 -62.541999999999874 L 284.00000000000006 -64.04199999999987 L 279.75000000000006 -64.04199999999987 L 279.75000000000006 -69.29199999999987 L 284.00000000000006 -69.29199999999987 L 284.00000000000006 -70.79199999999987 L 288.25000000000006 -70.79199999999987 L 288.25000000000006 -69.29199999999987 L 292.00000000000006 -69.29199999999987 L 292.00000000000006 -99.99999999999987 L 300.00000000000006 -99.99999999999987 L 300.00000000000006 -166.66699999999986 L 292.00000000000006 -166.66699999999986 L 292.0000000000001 -197.37499999999986 L 288.2500000000001 -197.37499999999986 L 288.2500000000001 -195.87499999999986 L 284.0000000000001 -195.8749999999999 L 284.0000000000001 -197.3749999999999 L 279.7500000000001 -197.3749999999999 L 279.7500000000001 -202.6249999999999 L 284.0000000000001 -202.6249999999999 L 284.0000000000001 -204.1249999999999 L 288.2500000000001 -204.12499999999986 L 288.2500000000001 -202.62499999999986 L 292.0000000000001 -202.62499999999986 L 292.0000000000001 -233.33299999999986 L 300.0000000000001 -233.33299999999986 L 300.0000000000001 -299.9999999999999 L 292.0000000000001 -299.9999999999999 L 292.00000000000017 -330.7079999999999 L 288.25000000000017 -330.7079999999999 L 288.25000000000017 -329.2079999999999 L 284.00000000000017 -329.2079999999999 L 284.00000000000017 -330.7079999999999 L 279.75000000000017 -330.7079999999999 L 279.75000000000017 -335.9579999999999 L 284.00000000000017 -335.9579999999999 L 284.00000000000017 -337.4579999999999 L 288.25000000000017 -337.4579999999999 L 288.25000000000017 -335.9579999999999 L 292.00000000000017 -335.9579999999999 L 292.00000000000017 -366.66699999999986 L 300.00000000000017 -366.66699999999986 L 300.00000000000017 -391.9999999999999 L 275.00000000000017 -391.9999999999999 L 275.00000000000017 -399.9999999999999 L 252.62500000000017 -399.9999999999999 L 252.62500000000017 -394.7499999999999 L 250.00000000000017 -394.7499999999999 L 247.37500000000017 -394.7499999999999 L 247.37500000000017 -399.9999999999999 L 225.00000000000017 -399.9999999999999 L 225.00000000000017 -391.9999999999999 L 175.00000000000017 -391.99999999999994 L 175.00000000000017 -399.99999999999994 L 152.62500000000017 -399.99999999999994 L 152.62500000000017 -394.74999999999994 L 150.00000000000017 -394.74999999999994 L 147.37500000000017 -394.74999999999994 L 147.37500000000017 -399.99999999999994 L 125.00000000000017 -399.99999999999994 L 125.00000000000017 -391.99999999999994 L 75.00000000000017 -391.99999999999994 L 75.00000000000017 -399.99999999999994 L 52.62500000000018 -400.0 L 52.62500000000018 -394.75 L 50.00000000000018 -394.75 L 47.37500000000018 -394.75 L 47.37500000000018 -400.0 L 25.000000000000178 -400.0 L 25.000000000000174 -392.0 L 1.7408297026122455e-13 -392.0 L 1.628328583080929e-13 -366.667 L 8.000000000000163 -366.667 L 8.00000000000015 -335.958 L 11.75000000000015 -335.958 L 11.75000000000015 -337.458 L 16.00000000000015 -337.458 L 16.00000000000015 -335.958 L 20.25000000000015 -335.958 L 20.250000000000146 -330.708 L 16.000000000000146 -330.708 L 16.000000000000146 -329.208 L 11.750000000000146 -329.208 L 11.750000000000147 -330.708 L 8.000000000000147 -330.708 L 8.000000000000133 -300.0 L 1.3322676295501878e-13 -300.0 L 1.0362066760194466e-13 -233.333 L 8.000000000000103 -233.333 L 8.00000000000009 -202.625 L 11.75000000000009 -202.625 L 11.75000000000009 -204.125 L 16.000000000000092 -204.125 L 16.00000000000009 -202.625 L 20.25000000000009 -202.625 L 20.25000000000009 -197.375 L 16.00000000000009 -197.375 L 16.000000000000085 -195.875 L 11.750000000000087 -195.875 L 11.750000000000087 -197.375 L 8.000000000000087 -197.375 L 8.000000000000075 -166.667 L 7.401501633808039e-14 -166.667 L 4.440892098500626e-14 -100.0 L 8.000000000000044 -100.0 L 8.00000000000003 -69.292 L 11.75000000000003 -69.292 L 11.750000000000032 -70.792 L 16.000000000000032 -70.792 L 16.000000000000032 -69.292 L 20.250000000000032 -69.29199999999999 L 20.25000000000003 -64.04199999999999 L 16.00000000000003 -64.042 L 16.00000000000003 -62.541999999999994 L 11.750000000000028 -62.541999999999994 L 11.750000000000028 -64.042 L 8.000000000000028 -64.042 L 8.000000000000014 -33.333 L 1.4802825631932136e-14 -33.333 L 3.552713678800501e-15 -8.0 " stroke="#ff0000" stroke-width="0.35 px" style="stroke-width:0.35;stroke-miterlimit:4;stroke-dasharray:none;stroke-linecap:square;fill:none;fill-opacity:1;fill-rule: evenodd"/>
<title>b'Sketch006'</title>
</g>
</svg>