<?xml version="1.0"?>
<!DOCTYPE svg PUBLIC "-//W3C//DTD SVG 1.1//EN" "http://www.w3.org/Graphics/SVG/1.1/DTD/svg11.dtd">
<svg width="306.0000000000002mm" height="406.00000000000017mm" viewBox="0 0 306.0000000000002 406.00000000000017" xmlns="http://www.w3.org/2000/svg" version="1.1">
<g id="Sketch008" transform="translate(-397.000000,403.000000) scale(1,-1)">
<path id="Sketch008_w0000"  d="M 400.0 8.000000000000135 L 425.0 8.00000000000013 L 425.0 1.2767564783189303e-13 L 447.375 1.2270739979669545e-13 L 447.375 5.2500000000001235 L 450.0 5.2500000000001235 L 452.625 5.250000000000123 L 452.625 1.2154166562083904e-13 L 475.0 1.1657341758564146e-13 L 475.0 8.000000000000119 L 525.0 8.000000000000107 L 525.0 1.0547118733938991e-13 L 547.375 1.0050293930419233e-13 L 547.375 5.250000000000101 L 550.0 5.250000000000101 L 552.625 5.2500000000001 L 552.625 9.933720512833592e-14 L 575.0 9.436895709313834e-14 L 575.0 8.000000000000096 L 625.0 8.000000000000085 L 625.0 8.326672684688678e-14 L 647.375 7.82984788116892e-14 L 647.375 5.250000000000079 L 650.0 5.250000000000079 L 652.625 5.250000000000078 L 652.625 7.713274463583279e-14 L 675.0 7.216449660063521e-14 L 675.0 8.000000000000075 L 700.0 8.00000000000007 L 700.0 33.33300000000008 L 692.0 33.33300000000008 L 692.0 64.04200000000007 L 688.25 64.04200000000007 L 688.25 62.54200000000009 L 684.0 62.54200000000009 L 684.0 64.04200000000009 L 679.75 64.04200000000009 L 679.75 69.29200000000009 L 684.0 69.29200000000009 L 684.0 70.79200000000009 L 688.25 70.79200000000007 L 688.25 69.29200000000007 L 692.0 69.29200000000007 L 692.0 100.00000000000009 L 700.0 100.00000000000009 L 700.0000000000001 166.66700000000012 L 692.0000000000001 166.66700000000012 L 692.0000000000001 197.37500000000014 L 688.2500000000001 197.37500000000014 L 688.2500000000001 195.87500000000014 L 684.0000000000001 195.87500000000014 L 684.0000000000001 197.37500000000014 L 679.7500000000001 197.37500000000014 L 679.7500000000001 202.62500000000014 L 684.0000000000001 202.62500000000014 L 684.0000000000001 204.12500000000014 L 688.2500000000001 204.12500000000014 L 688.2500000000001 202.62500000000014 L 692.0000000000001 202.62500000000014 L 692.0000000000001 233.33300000000014 L 700.0000000000001 233.33300000000014 L 700.0000000000001 300.0000000000001 L 692.0000000000001 300.0000000000001 L 692.0000000000001 330.70800000000014 L 688.2500000000001 330.70800000000014 L 688.2500000000001 329.20800000000014 L 684.0000000000001 329.20800000000014 L 684.0000000000001 330.70800000000014 L 679.7500000000001 330.70800000000014 L 679.7500000000001 335.95800000000014 L 684.0000000000001 335.95800000000014 L 684.0000000000001 337.45800000000014 L 688.2500000000001 337.45800000000014 L 688.2500000000001 335.95800000000014 L 692.0000000000001 335.95800000000014 L 692.0000000000001 366.6670000000001 L 700.0000000000001 366.6670000000001 L 700.0000000000002 392.00000000000017 L 675.0000000000002 392.00000000000017 L 675.0000000000002 400.00000000000017 L 652.6250000000001 400.00000000000017 L 652.6250000000001 394.75000000000017 L 650.0000000000001 394.75000000000017 L 647.3750000000001 394.75000000000017 L 647.3750000000001 400.00000000000017 L 625.0000000000001 400.00000000000017 L 625.0000000000001 392.00000000000017 L 575.0000000000001 392.00000000000017 L 575.0000000000001 400.00000000000017 L 552.6250000000001 400.00000000000017 L 552.6250000000001 394.75000000000017 L 550.0000000000001 394.75000000000017 L 547.3750000000001 394.75000000000017 L 547.3750000000001 400.00000000000017 L 525.0000000000001 400.0000000000002 L 525.0000000000001 392.0000000000002 L 475.0000000000001 392.0000000000002 L 475.0000000000001 400.0000000000002 L 452.6250000000001 400.0000000000002 L 452.6250000000001 394.7500000000002 L 450.0000000000001 394.7500000000002 L 447.3750000000001 394.7500000000002 L 447.3750000000001 400.0000000000002 L 425.0000000000001 400.0000000000002 L 425.0000000000001 392.0000000000002 L 400.0000000000001 392.0000000000002 L 400.00000000000006 366.66700000000014 L 408.00000000000006 366.66700000000014 L 408.00000000000006 335.9580000000002 L 411.75000000000006 335.9580000000002 L 411.75000000000006 337.4580000000002 L 416.00000000000006 337.4580000000002 L 416.00000000000006 335.9580000000002 L 420.25000000000006 335.9580000000002 L 420.25000000000006 330.7080000000002 L 416.00000000000006 330.7080000000002 L 416.00000000000006 329.2080000000002 L 411.75000000000006 329.2080000000002 L 411.75000000000006 330.7080000000002 L 408.00000000000006 330.7080000000002 L 408.00000000000006 300.00000000000017 L 400.00000000000006 300.00000000000017 L 400.00000000000006 233.3330000000002 L 408.00000000000006 233.3330000000002 L 408.00000000000006 202.6250000000002 L 411.75000000000006 202.6250000000002 L 411.75000000000006 204.1250000000002 L 416.00000000000006 204.1250000000002 L 416.00000000000006 202.6250000000002 L 420.25000000000006 202.6250000000002 L 420.25000000000006 197.3750000000002 L 416.00000000000006 197.3750000000002 L 416.00000000000006 195.8750000000002 L 411.75000000000006 195.8750000000002 L 411.75000000000006 197.3750000000002 L 408.00000000000006 197.3750000000002 L 408.00000000000006 166.66700000000017 L 400.00000000000006 166.66700000000017 L 400.0 100.00000000000016 L 408.0 100.00000000000016 L 408.0 69.29200000000014 L 411.75 69.29200000000014 L 411.75 70.79200000000014 L 416.0 70.79200000000014 L 416.0 69.29200000000014 L 420.25 69.29200000000014 L 420.25 64.04200000000014 L 416.0 64.04200000000014 L 416.0 62.54200000000015 L 411.75 62.54200000000015 L 411.75 64.04200000000014 L 408.0 64.04200000000014 L 408.0 33.33300000000014 L 400.0 33.33300000000014 L 400.0 8.000000000000135 " stroke="#ff0000" stroke-width="0.35 px" style="stroke-width:0.35;stroke-miterlimit:4;stroke-dasharray:none;stroke-linecap:square;fill:none;fill-opacity:1;fill-rule: evenodd"/>
<title>b'Sketch008'</title>
</g>
</svg>