<?xml version="1.0"?>
<!DOCTYPE svg PUBLIC "-//W3C//DTD SVG 1.1//EN" "http://www.w3.org/Graphics/SVG/1.1/DTD/svg11.dtd">
<svg width="408.00000000000017mm" height="408.00000000000017mm" viewBox="0 0 408.00000000000017 408.00000000000017" xmlns="http://www.w3.org/2000/svg" version="1.1">
<g id="Sketch007" transform="translate(4.000000,404.000000) scale(1,-1)">
<path id="Sketch007_w0000"  d="M 8.000000000000004 8.0 L 33.333000000000006 7.999999999999995 L 33.333000000000006 -7.401412815966068e-15 L 64.04200000000002 -1.4220180588608855e-14 L 64.04200000000002 5.249999999999987 L 66.66700000000002 5.249999999999986 L 69.29200000000002 5.249999999999986 L 69.29200000000002 -1.538591476446527e-14 L 100.00000000000003 -2.220446049250313e-14 L 100.00000000000003 7.99999999999998 L 166.66700000000003 7.9999999999999645 L 166.66700000000003 -3.7007508169040193e-14 L 197.37500000000006 -4.3826053897078054e-14 L 197.37500000000006 5.249999999999957 L 200.00000000000006 5.2499999999999565 L 202.62500000000006 5.249999999999956 L 202.62500000000006 -4.499178807293447e-14 L 233.33300000000006 -5.181033380097233e-14 L 233.33300000000006 7.99999999999995 L 300.00000000000006 7.999999999999935 L 300.00000000000006 -6.661338147750939e-14 L 330.7080000000001 -7.343192720554726e-14 L 330.7080000000001 5.249999999999927 L 333.3330000000001 5.249999999999927 L 335.9580000000001 5.249999999999926 L 335.9580000000001 -7.459766138140367e-14 L 366.66700000000003 -8.141642915404645e-14 L 366.66700000000003 7.99999999999992 L 392.0000000000001 7.999999999999915 L 392.0000000000001 33.33299999999992 L 400.0000000000001 33.33299999999992 L 400.0000000000001 64.04199999999993 L 394.7500000000001 64.04199999999993 L 394.7500000000001 66.66699999999993 L 394.7500000000001 69.29199999999993 L 400.0000000000001 69.29199999999993 L 400.0000000000001 99.99999999999994 L 392.0000000000001 99.99999999999994 L 392.00000000000017 166.66699999999994 L 400.00000000000017 166.66699999999994 L 400.00000000000017 197.37499999999997 L 394.75000000000017 197.37499999999997 L 394.75000000000017 199.99999999999997 L 394.75000000000017 202.62499999999997 L 400.00000000000017 202.62499999999997 L 400.00000000000017 233.33299999999997 L 392.00000000000017 233.33299999999997 L 392.00000000000017 299.99999999999994 L 400.00000000000017 299.99999999999994 L 400.00000000000017 330.70799999999997 L 394.75000000000017 330.70799999999997 L 394.75000000000017 333.33299999999997 L 394.75000000000017 335.95799999999997 L 400.00000000000017 335.95799999999997 L 400.00000000000017 366.6669999999999 L 392.00000000000017 366.6669999999999 L 392.0000000000002 392.0 L 366.66700000000014 392.00000000000006 L 366.66700000000014 400.00000000000006 L 335.9580000000002 400.00000000000006 L 335.9580000000002 394.75000000000006 L 333.3330000000002 394.75000000000006 L 330.7080000000002 394.75000000000006 L 330.7080000000002 400.00000000000006 L 300.00000000000017 400.00000000000006 L 300.00000000000017 392.00000000000006 L 233.33300000000014 392.00000000000006 L 233.33300000000014 400.00000000000006 L 202.62500000000014 400.00000000000006 L 202.62500000000014 394.75000000000006 L 200.00000000000014 394.75000000000006 L 197.37500000000014 394.75000000000006 L 197.37500000000014 400.00000000000006 L 166.66700000000012 400.00000000000006 L 166.66700000000012 392.00000000000006 L 100.00000000000011 392.0000000000001 L 100.00000000000011 400.0000000000001 L 69.2920000000001 400.0000000000001 L 69.2920000000001 394.7500000000001 L 66.6670000000001 394.7500000000001 L 64.0420000000001 394.7500000000001 L 64.0420000000001 400.0000000000001 L 33.33300000000009 400.0000000000001 L 33.33300000000009 392.0000000000001 L 8.000000000000089 392.0000000000001 L 8.000000000000083 366.66700000000003 L 8.141642915404645e-14 366.66700000000003 L 7.459766138140367e-14 335.9580000000001 L 5.2500000000000755 335.9580000000001 L 5.250000000000075 333.3330000000001 L 5.250000000000075 330.7080000000001 L 7.343192720554726e-14 330.7080000000001 L 6.661338147750939e-14 300.00000000000006 L 8.000000000000068 300.00000000000006 L 8.000000000000053 233.33300000000006 L 5.181033380097233e-14 233.33300000000006 L 4.499178807293447e-14 202.62500000000006 L 5.250000000000046 202.62500000000006 L 5.250000000000045 200.00000000000006 L 5.250000000000044 197.37500000000006 L 4.3826053897078054e-14 197.37500000000006 L 3.7007508169040193e-14 166.66700000000003 L 8.000000000000039 166.66700000000003 L 8.000000000000023 100.00000000000003 L 2.220446049250313e-14 100.00000000000003 L 1.538591476446527e-14 69.29200000000002 L 5.250000000000016 69.29200000000002 L 5.250000000000016 66.66700000000002 L 5.250000000000015 64.04200000000002 L 1.4220180588608855e-14 64.04200000000002 L 7.401412815966068e-15 33.333000000000006 L 8.000000000000009 33.333000000000006 L 8.000000000000004 8.0 " stroke="#ff0000" stroke-width="0.35 px" style="stroke-width:0.35;stroke-miterlimit:4;stroke-dasharray:none;stroke-linecap:square;fill:none;fill-opacity:1;fill-rule: evenodd"/>
<title>b'Sketch007'</title>
</g>
</svg>